<svg width="33" height="26" viewBox="0 0 33 26" fill="none" xmlns="http://www.w3.org/2000/svg">
<path d="M0.226744 0.911691C0.180516 1.02726 0.272971 1.28151 0.434767 1.53576C0.596563 1.7669 0.943268 2.32163 1.22063 2.77234C1.498 3.2115 1.7638 3.59288 1.82159 3.61599C1.86782 3.63911 1.91404 3.70845 1.91404 3.75468C1.91404 3.84713 2.31853 4.51743 2.57278 4.85258C2.63057 4.91036 2.73458 5.10683 2.82703 5.28018C2.91949 5.46509 3.03506 5.60377 3.09284 5.60377C3.13907 5.60377 3.1853 5.68467 3.1853 5.77712C3.1853 5.86958 3.24308 5.95048 3.30086 5.95048C3.37021 5.95048 3.41643 6.01982 3.41643 6.11227C3.41643 6.19317 3.54356 6.35497 3.70535 6.45898C3.86715 6.56299 3.99428 6.62077 3.99428 6.57455C3.99428 6.52832 4.07517 6.56299 4.16763 6.64389C4.26008 6.72479 4.34098 6.7479 4.34098 6.70167C4.34098 6.65544 4.42188 6.67856 4.51433 6.75946C4.60679 6.84035 4.68769 6.87502 4.68769 6.84035C4.68769 6.80568 6.05139 7.23329 7.72714 7.78802C11.0324 8.90903 14.0025 9.87981 14.2799 9.93759C14.3723 9.9607 14.4648 9.98382 14.4879 9.99537C14.4995 10.0185 14.5457 10.03 14.6035 10.0532C14.6497 10.0647 14.7768 10.1109 14.8808 10.1572C14.9848 10.2034 15.1466 10.2612 15.2506 10.2727C15.3431 10.2843 15.4702 10.3305 15.5049 10.3767C15.6551 10.527 15.9903 10.4576 16.0596 10.2727C16.0943 10.1687 16.129 9.22106 16.129 8.15783C16.129 6.45898 16.1059 6.19317 15.9209 6.04293C15.8169 5.95048 12.3152 4.73701 8.15474 3.35019C3.99428 1.96336 0.515665 0.807679 0.446324 0.773009C0.365426 0.749895 0.261414 0.807679 0.226744 0.911691Z" fill="#050B20" fill-opacity="0.5"/>
<path d="M32.0197 0.969414C31.7076 1.07343 28.2753 2.22911 24.3922 3.53503C20.5206 4.8294 17.25 5.98509 17.146 6.0891C16.9611 6.27401 16.938 6.53981 16.938 8.30801C16.938 10.2264 16.9495 10.3305 17.1691 10.3998C17.2963 10.4345 17.458 10.4345 17.5389 10.3767C17.6198 10.3305 17.7585 10.2842 17.8394 10.2727C17.9319 10.2496 18.0821 10.2033 18.1861 10.1571C18.2901 10.1109 18.4519 10.0647 18.5328 10.0415C18.6253 10.03 18.7755 9.9722 18.8795 9.92597C18.9836 9.87974 19.1107 9.83352 19.1685 9.82196C19.2147 9.79884 19.2725 9.77573 19.3071 9.76417C19.3418 9.75262 19.4227 9.71795 19.4805 9.70639C19.5498 9.69483 19.6192 9.66016 19.6538 9.64861C19.6885 9.63705 19.7694 9.60238 19.8272 9.59082C19.8965 9.57926 19.9659 9.54459 20.0006 9.53304C20.0352 9.52148 20.1161 9.48681 20.1739 9.47525C20.2432 9.4637 20.3126 9.42903 20.3473 9.41747C20.3819 9.40591 20.4628 9.37124 20.5206 9.35968C20.59 9.34813 20.6593 9.31346 20.694 9.3019C20.7286 9.29034 20.8095 9.25567 20.8673 9.24412C20.9367 9.23256 21.006 9.19789 21.0407 9.18633C21.0753 9.17477 21.1562 9.1401 21.214 9.12855C21.2834 9.11699 21.3527 9.08232 21.3874 9.07076C21.422 9.05921 21.5029 9.02454 21.5607 9.01298C21.6301 9.00142 21.6879 8.97831 21.711 8.95519C21.7225 8.94364 21.815 8.92052 21.9074 8.89741C22.1386 8.85118 25.3167 7.82262 27.6281 7.04832C29.3269 6.47047 29.4887 6.40113 29.7083 6.03131C29.8354 5.82329 30.0781 5.43036 30.263 5.16455C30.4364 4.89874 30.5751 4.65605 30.5751 4.62138C30.5751 4.58671 30.6791 4.44802 30.8062 4.30934C30.9333 4.17066 31.0373 3.98575 31.0373 3.90485C31.0373 3.82396 31.0836 3.75461 31.1414 3.75461C31.1991 3.75461 31.3031 3.61593 31.3725 3.43102C31.4418 3.25767 31.7885 2.70294 32.1352 2.19444C32.7015 1.3739 32.9327 0.738276 32.69 0.749834C32.6322 0.761391 32.3433 0.853846 32.0197 0.969414Z" fill="#050B20" fill-opacity="0.5"/>
<path d="M6.15559 9.84508C5.9938 10.0069 6.08625 10.3536 6.45607 10.8736C6.94146 11.5786 7.18415 11.9484 7.41529 12.3645C7.762 12.977 9.05636 14.8954 9.33373 15.219C9.54175 15.4501 10.0618 15.6697 11.622 16.1667C12.7314 16.5249 14.1298 16.9872 14.7077 17.1721C15.2971 17.3686 15.8633 17.5073 15.9558 17.461C16.106 17.4148 16.1292 17.0681 16.1292 15.3692C16.1292 13.4739 16.1176 13.3352 15.898 13.1388C15.7362 13.0001 6.47919 9.76418 6.24805 9.76418C6.23649 9.76418 6.19026 9.79885 6.15559 9.84508Z" fill="#050B20" fill-opacity="0.5"/>
<path d="M22.0228 11.3707C19.4456 12.249 17.2498 13.0464 17.1343 13.162C16.9494 13.3353 16.9378 13.5665 16.9609 15.404C16.9956 17.3687 17.0071 17.4496 17.2267 17.438C17.5156 17.4149 19.0874 16.9873 19.5496 16.8024C19.7346 16.7215 19.9195 16.6521 19.9772 16.6406C20.0235 16.6175 20.0813 16.5944 20.1159 16.5828C20.1506 16.5712 20.2315 16.5366 20.2893 16.525C20.3586 16.5135 20.428 16.4788 20.4626 16.4672C20.4973 16.4557 20.5782 16.421 20.636 16.4094C20.7053 16.3979 20.7631 16.3748 20.7862 16.3517C20.7978 16.3401 20.9018 16.317 21.0058 16.2939C21.2716 16.2477 22.7509 15.7623 22.8896 15.6698C22.9589 15.6351 23.1092 15.5889 23.2363 15.5774C23.5021 15.5311 23.9875 15.1035 23.9875 14.9071C23.9875 14.8262 24.0915 14.6759 24.2186 14.5604C24.3457 14.4448 24.4151 14.3061 24.3804 14.2599C24.3457 14.2021 24.3804 14.1559 24.4497 14.1559C24.5191 14.1559 24.6347 14.0172 24.7156 13.8323C24.7849 13.6589 24.9467 13.4162 25.0507 13.3007C25.1663 13.1735 25.2587 13.0002 25.2587 12.9193C25.2587 12.8384 25.305 12.769 25.3627 12.769C25.4205 12.769 25.5476 12.5957 25.6517 12.3877C25.8712 11.9601 26.0561 11.6596 26.2757 11.3938C26.3566 11.2898 26.4144 11.1626 26.4029 11.1049C26.4029 11.0471 26.4375 10.9662 26.4953 10.9315C26.9576 10.6195 27.2118 9.74115 26.8305 9.77582C26.7611 9.78737 24.6 10.5039 22.0228 11.3707Z" fill="#050B20" fill-opacity="0.5"/>
<path d="M11.7373 18.7901C11.7373 18.9981 11.9684 19.3795 13.5286 21.7833C13.7944 22.1994 14.4185 23.147 14.8923 23.8982C15.3777 24.6379 15.8631 25.2504 15.9556 25.2504C16.1058 25.2504 16.1289 24.8921 16.1289 22.6616C16.1289 20.7316 16.0942 20.0498 15.9902 19.9689C15.8169 19.8302 12.0956 18.5474 11.876 18.5474C11.7951 18.5474 11.7373 18.6514 11.7373 18.7901Z" fill="#050B20" fill-opacity="0.5"/>
<path d="M19.0759 19.1946C18.0589 19.5413 17.1575 19.9111 17.0881 20.0151C16.8685 20.304 16.8801 25.2504 17.0881 25.2504C17.2846 25.2504 17.6428 24.8574 17.9318 24.3258C18.0473 24.1062 18.186 23.8751 18.2438 23.8058C18.4981 23.4591 18.891 22.8234 18.8448 22.8234C18.8101 22.8234 18.9025 22.6847 19.0528 22.523C19.1915 22.3612 19.307 22.1878 19.307 22.1416C19.307 22.1069 19.411 21.9451 19.5497 21.8064C19.6884 21.6677 19.8964 21.3442 20.012 21.0899C20.1276 20.8357 20.2662 20.6276 20.324 20.6276C20.3703 20.6276 20.4049 20.5467 20.4049 20.4543C20.4049 20.3618 20.4627 20.2809 20.5205 20.2809C20.5898 20.2809 20.6361 20.2 20.6361 20.1076C20.6361 20.0151 20.6823 19.9342 20.7401 19.9342C20.7979 19.9342 20.925 19.7493 21.029 19.5297C21.133 19.3101 21.2717 19.1021 21.3179 19.0675C21.5028 18.9634 21.3757 18.6052 21.1446 18.5821C21.029 18.5705 20.0929 18.8479 19.0759 19.1946Z" fill="#050B20" fill-opacity="0.5"/>
</svg>
