<svg width="48" height="16" viewBox="0 0 48 16" fill="none" xmlns="http://www.w3.org/2000/svg">
<path d="M14.4308 0.887317C7.78897 1.97726 2.47549 4.08903 0.772455 6.23486C0.0912395 7.05231 0.227482 9.16408 1.01088 10.1178C1.35149 10.5946 2.71392 11.5143 3.97417 12.1614C12.864 16.7596 30.9162 17.0662 42.2585 12.8086C43.3484 12.3999 44.9152 11.4462 45.7667 10.6968C47.1291 9.50469 47.3335 9.13002 47.3335 8.00601C47.3335 5.62176 44.1659 3.47593 38.4096 1.87508C31.8018 0.0698586 21.6858 -0.338871 14.4308 0.887317ZM31.6656 2.79472C33.4367 3.06721 34.9695 3.37375 35.0376 3.44187C35.1057 3.51 34.9354 3.8506 34.6288 4.15715C34.3564 4.49776 33.7433 5.4174 33.2664 6.23486L32.449 7.69947L32.2105 6.26892C31.904 4.29339 31.4271 3.57812 30.4734 3.57812C29.5538 3.57812 28.7704 4.53182 28.3957 6.13267C28.0551 7.63135 26.6927 9.87936 25.6368 10.6968L24.6831 11.4121L26.0455 11.344C27.2717 11.2418 27.5101 11.0715 28.4298 9.64093C29.0088 8.75535 29.5538 8.04008 29.656 8.04008C29.7922 8.00601 29.9625 8.75535 30.0988 9.70905C30.3031 11.344 30.3713 11.4121 31.359 11.4121C32.2787 11.4121 32.483 11.2077 33.3345 9.33438L34.2882 7.22262L34.4585 8.82347C34.731 11.2077 35.7529 11.9911 37.4559 11.0715C38.103 10.7309 38.103 10.6968 37.49 9.43657C37.1153 8.75535 36.7747 7.1545 36.6725 5.89425L36.5022 3.61218L37.4218 3.95278C40.862 5.28115 42.9737 7.29074 42.2585 8.61911C41.2366 10.4925 37.9668 12.1614 33.0961 13.2173C28.7023 14.171 19.6421 14.2391 15.2823 13.3536C11.2291 12.5361 8.57237 11.7186 9.18546 11.4462C10.3095 11.0034 11.5697 9.94748 12.2169 8.92566L12.9321 7.83571V9.60687C12.9321 11.0715 13.0343 11.4121 13.6134 11.5824C14.5671 11.8889 15.1802 11.4462 16.5085 9.53875L17.7007 7.86977V9.43657C17.7007 11.344 18.3478 12.0252 19.6762 11.5483C20.3915 11.2758 20.5618 11.0374 20.4596 10.3903C20.3915 9.91342 20.3233 8.21038 20.3574 6.5414C20.3915 3.95278 20.3233 3.57812 19.8124 3.57812C18.9268 3.57812 17.9391 4.36151 16.8151 5.99643L15.8273 7.46104L15.657 5.75801C15.5208 4.32745 15.3845 4.08903 14.7033 3.98685C13.6474 3.81654 13.1024 4.32745 11.8422 6.71171C10.8544 8.58505 8.57237 11.0715 7.82303 11.0715C7.07369 11.0715 5.09817 8.92566 5.09817 8.1082C5.09817 5.68988 11.3653 2.99908 18.8928 2.24975C22.6395 1.84102 27.3398 2.04538 31.6656 2.79472Z" fill="#050B20" fill-opacity="0.5"/>
<path d="M22.5372 4.3274C22.1625 4.80426 21.4473 8.27845 21.4473 9.74306C21.4473 11.7186 23.0822 12.1614 24.7512 10.6627C25.5346 9.94743 28.4297 4.29334 28.1232 4.02086C27.6123 3.50995 26.4542 4.56583 25.4664 6.40511C24.5127 8.21033 24.3424 8.38063 24.2402 7.6313C24.1721 7.15445 24.2743 6.13262 24.4446 5.34923C24.7852 3.95274 24.7852 3.91868 23.8315 3.91868C23.3206 3.91868 22.7416 4.12304 22.5372 4.3274Z" fill="#050B20" fill-opacity="0.5"/>
</svg>
