<svg width="27" height="28" viewBox="0 0 27 28" fill="none" xmlns="http://www.w3.org/2000/svg">
<circle cx="13.5" cy="14" r="13.5" fill="#FF5354"/>
<path d="M12.7491 6.58176C12.1622 6.71827 11.3371 7.10406 11.2093 7.29992C11.1512 7.39488 10.9536 7.51359 10.6341 7.63823C10.361 7.73912 10.0937 7.86376 10.0298 7.91125C9.91355 7.99434 9.91355 8.00027 10.0414 8.25549C10.2448 8.68282 10.5178 9.02113 10.7386 9.11609C10.9304 9.19325 10.9536 9.19325 11.0059 9.10422C11.0815 8.96178 11.4998 8.77779 11.7555 8.77779C11.9182 8.77779 11.9995 8.81933 12.1157 8.96178C12.4295 9.34163 12.2552 9.51375 11.5405 9.52562C10.8374 9.53156 10.6864 9.66213 10.942 10.042C11.2965 10.5762 11.5347 10.6771 11.8891 10.4396C12.1157 10.2853 12.3017 10.2913 12.383 10.4456C12.4527 10.5762 12.3656 10.7483 12.017 11.1815L11.8717 11.3596L10.3261 10.5584L8.78051 9.7571H7.97866C7.18262 9.7571 7.171 9.7571 6.95601 9.92328C6.619 10.1904 6.43306 10.5168 6.47373 10.778C6.52603 11.1103 6.619 11.1697 6.93857 11.0925C7.29302 11.0154 7.48476 11.0925 7.59516 11.3596C7.65908 11.5258 7.71137 11.5673 7.8392 11.5673C8.1123 11.5673 8.94901 12.1431 8.86766 12.2736C8.85604 12.3033 8.68754 12.3448 8.50741 12.3686C7.90312 12.4398 7.07222 12.6416 6.72359 12.8019C6.3982 12.9502 6.37496 12.9799 6.18902 13.3716C5.96241 13.8524 5.94498 14.072 6.10767 14.345C6.26456 14.6062 6.35171 14.6299 6.65386 14.4756C7.07222 14.2738 7.27558 14.2619 7.43247 14.434C7.55449 14.5646 7.59516 14.5765 7.74042 14.5231C7.8392 14.4875 8.48998 14.4756 9.37318 14.4875L10.8432 14.5053L11.1628 14.6715C11.3371 14.7605 11.6102 14.9445 11.7613 15.0869L12.0402 15.3362L11.4301 16.4223C11.0989 17.0159 10.6864 17.7934 10.512 18.1436L10.2041 18.7786L10.1808 19.5383C10.1576 20.4286 10.2273 20.3574 9.30926 20.5058C8.46093 20.6423 8.08906 20.761 7.97866 20.9331C7.86826 21.0993 7.74042 21.7878 7.73461 22.2032V22.4822L8.21689 22.4406C8.84442 22.3872 9.89612 22.3872 11.1977 22.4466L12.2436 22.4941L12.2203 21.7878C12.2029 21.2655 12.2145 21.0459 12.2726 20.9331C12.4121 20.672 14.6665 18.1495 14.7363 18.1792C14.7711 18.191 15.2476 18.5353 15.7938 18.9448C16.9326 19.7995 17.1302 19.9122 17.5486 19.9716C17.7984 20.0013 17.8681 20.0428 17.9204 20.1556C18.025 20.3989 17.9146 20.488 17.3626 20.6007C16.7583 20.7254 16.6537 20.7729 16.5375 21.0103C16.4562 21.1646 16.2528 22.4228 16.2993 22.4703C16.3051 22.4822 16.6014 22.4585 16.9501 22.4228C17.4033 22.3813 17.9495 22.3813 18.8501 22.4347L20.1226 22.5L20.2156 22.3635C20.2679 22.2863 20.4654 22.0549 20.6572 21.8531L21 21.4791L20.9361 21.2477C20.8489 20.9687 20.2156 19.6452 19.8437 18.9685C19.6926 18.7015 19.3266 18.102 19.0244 17.6331C18.7223 17.1702 18.4666 16.7488 18.4492 16.7013C18.4259 16.6419 18.6235 16.3927 19.0012 15.995C19.6462 15.3125 19.7798 15.081 19.7798 14.5943C19.7798 14.1551 19.6636 13.8168 19.0477 12.4873C18.3097 10.8907 18.2226 10.683 18.1064 10.2913C17.8623 9.41879 18.118 8.65908 18.6526 8.65908C18.792 8.65908 18.8908 8.82527 18.8908 9.06268C18.8908 9.2526 19.0535 9.7749 19.2104 10.0835C19.4079 10.4753 20.2563 11.2706 20.4712 11.2706C20.5642 11.2706 20.5119 10.9976 20.2214 9.85206C19.9192 8.65908 19.8379 8.43354 19.6229 8.19614C19.3266 7.85783 18.6526 7.67977 18.2284 7.82815C17.9611 7.91718 17.6473 8.1902 17.4614 8.4929C17.3859 8.61754 17.2813 8.71843 17.2348 8.71843C17.0837 8.71843 16.2819 7.86376 16.2412 7.66197C16.218 7.56107 16.1598 7.44236 16.1076 7.39488C15.8868 7.19902 14.1204 6.61737 13.4289 6.5046C13.3185 6.48679 13.0106 6.52241 12.7491 6.58176ZM12.4121 7.35334C12.4469 7.41269 11.9821 7.6501 11.8194 7.6501C11.6393 7.6501 11.7787 7.44236 12.0053 7.37708C12.3017 7.28211 12.3656 7.28211 12.4121 7.35334ZM18.3737 12.8434C19.0477 14.167 19.0709 14.2797 18.7281 14.6477C18.4492 14.9445 17.6764 15.3362 17.4672 15.2828C17.3801 15.259 17.0605 14.9267 16.6247 14.4044C15.6834 13.2648 15.6834 13.152 16.6305 12.8197C17.5137 12.517 17.6125 12.4279 17.6125 11.9531C17.6125 11.4664 17.7635 11.6445 18.3737 12.8434Z" fill="white"/>
</svg>
