<svg width="16" height="16" viewBox="0 0 16 16" fill="none" xmlns="http://www.w3.org/2000/svg">
<path d="M13.3332 6.66668C13.3332 9.61201 7.99984 14.6667 7.99984 14.6667C7.99984 14.6667 2.6665 9.61201 2.6665 6.66668C2.6665 5.25219 3.22841 3.89563 4.2286 2.89544C5.22879 1.89525 6.58535 1.33334 7.99984 1.33334C9.41432 1.33334 10.7709 1.89525 11.7711 2.89544C12.7713 3.89563 13.3332 5.25219 13.3332 6.66668Z" stroke="#FF5354" stroke-width="1.25"/>
<path d="M7.99967 7.33333C8.17649 7.33333 8.34605 7.2631 8.47108 7.13807C8.5961 7.01305 8.66634 6.84348 8.66634 6.66667C8.66634 6.48986 8.5961 6.32029 8.47108 6.19526C8.34605 6.07024 8.17649 6 7.99967 6C7.82286 6 7.65329 6.07024 7.52827 6.19526C7.40325 6.32029 7.33301 6.48986 7.33301 6.66667C7.33301 6.84348 7.40325 7.01305 7.52827 7.13807C7.65329 7.2631 7.82286 7.33333 7.99967 7.33333Z" fill="#FF5354" stroke="#FF5354" stroke-width="1.25" stroke-linecap="round" stroke-linejoin="round"/>
</svg>
