<svg width="28" height="27" viewBox="0 0 28 27" fill="none" xmlns="http://www.w3.org/2000/svg">
<circle cx="14.2285" cy="13.5" r="13.5" fill="#050B20"/>
<path d="M16.7842 5.16675H11.7842L7.61755 13.5001H11.3676L13.4509 9.33341H15.1176L17.2009 13.5001H20.9509L16.7842 5.16675ZM16.7842 21.8334H11.7842L7.61755 13.5001H11.3676L13.4509 17.6667H15.1176L17.2009 13.5001H20.9509L16.7842 21.8334Z" fill="white"/>
<path d="M7.61755 13.5001L11.7842 5.16675H16.7842L20.9509 13.5001M7.61755 13.5001H11.3676M7.61755 13.5001L11.7842 21.8334H16.7842L20.9509 13.5001M11.3676 13.5001L13.4509 9.33341H15.1176L17.2009 13.5001M11.3676 13.5001L13.4509 17.6667H15.1176L17.2009 13.5001M17.2009 13.5001H20.9509" stroke="white" stroke-width="1.66667" stroke-linejoin="round"/>
</svg>
