<svg width="17" height="16" viewBox="0 0 17 16" fill="none" xmlns="http://www.w3.org/2000/svg">
<g clip-path="url(#clip0_121_565)">
<path d="M3.73002 1.6189C3.314 1.71817 2.87907 2.03019 2.63796 2.4084C2.57651 2.50767 2.11321 3.56191 1.61209 4.75798L0.694946 6.93265V13.5512L0.82259 13.7734C0.997509 14.0665 1.2528 14.2698 1.56009 14.3596C1.76337 14.4211 2.0092 14.4305 2.81288 14.4163C3.74893 14.4022 3.8293 14.3927 4.04204 14.2887C4.16496 14.2272 4.33988 14.0949 4.4297 13.9909C4.6708 13.7072 4.73699 13.4566 4.73699 12.8326V12.2984H9.5118L9.77181 12.5111C9.9231 12.6293 10.1217 12.7475 10.2398 12.7759L10.4431 12.8279L10.4715 13.1446C10.5046 13.5465 10.5991 13.7828 10.8261 14.0145C11.1901 14.3927 11.2374 14.4022 12.5138 14.4022C13.5964 14.4022 13.6578 14.3974 13.8422 14.2981C14.0928 14.1658 14.3103 13.9483 14.4426 13.6977C14.5466 13.5086 14.5466 13.4708 14.5561 11.3293L14.5703 9.15932L14.7546 8.98912C15.2558 8.53528 15.3314 8.32254 15.5394 6.64427C15.7521 4.97072 15.7474 4.6587 15.5205 4.22377C15.1045 3.45318 14.2866 3.09862 13.3411 3.28299C13.1473 3.32554 12.9724 3.33972 12.9582 3.32554C12.944 3.30663 12.8494 3.09389 12.7502 2.85278C12.5469 2.36112 12.2821 2.02074 11.9418 1.82218C11.5068 1.56689 11.5352 1.56689 7.57351 1.57162C5.55958 1.57635 3.8293 1.59526 3.73002 1.6189ZM11.4406 2.74878C11.5446 2.81496 11.6439 2.94733 11.7574 3.18371C11.8472 3.36808 11.9181 3.52409 11.9134 3.52882C11.9039 3.53355 11.625 3.58555 11.2846 3.64228C10.949 3.70374 10.585 3.78884 10.4809 3.83611C10.358 3.89757 9.63472 4.58779 8.36774 5.85477C6.27817 7.94907 6.23562 8.00107 6.23562 8.49746C6.23562 8.93239 6.36326 9.10258 7.49787 10.2561L8.5332 11.3056L5.11992 11.2962L1.70664 11.282L1.71137 9.2255V7.16902L2.35431 5.65621C3.62602 2.66841 3.51256 2.89533 3.75839 2.74878C3.90494 2.65895 4.02313 2.65423 7.59715 2.65423C11.1948 2.65423 11.2894 2.65895 11.4406 2.74878ZM14.2015 4.16704C14.5183 4.25686 14.7357 4.49324 14.8114 4.82417C14.8539 5.01327 14.5183 7.93016 14.4379 8.07671C14.4095 8.12398 13.5491 8.99858 12.528 10.015C11.0482 11.4947 10.6417 11.8729 10.5471 11.8729C10.4479 11.8729 10.0886 11.542 8.81685 10.275C7.9328 9.40042 7.18585 8.63456 7.15749 8.57783C7.11967 8.51164 7.11494 8.436 7.14331 8.36509C7.16694 8.30363 8.00372 7.44322 9.00123 6.45044L10.8119 4.64452L12.2538 4.38923C13.8139 4.11031 13.9368 4.09613 14.2015 4.16704ZM13.5113 11.2442C13.4924 11.2914 13.36 11.3056 13.0102 11.3056C12.7502 11.3056 12.5374 11.2867 12.5374 11.2631C12.5374 11.2394 12.7549 11.0125 13.0244 10.7572L13.5066 10.2939L13.5208 10.7383C13.5255 10.9794 13.5255 11.2063 13.5113 11.2442ZM3.67329 12.7853C3.67329 13.4046 3.70639 13.3857 2.72306 13.3857C2.29758 13.3857 1.90047 13.3668 1.83428 13.3385C1.71137 13.2959 1.71137 13.2865 1.71137 12.7948V12.2984L2.69469 12.3079L3.67329 12.322V12.7853ZM13.5208 12.7428C13.5444 13.4046 13.5728 13.3857 12.5327 13.3857C12.0363 13.3857 11.6439 13.3668 11.5872 13.3385C11.5068 13.2912 11.4974 13.2345 11.4974 12.7901V12.2984L12.5043 12.3079L13.5066 12.322L13.5208 12.7428Z" fill="white"/>
<path d="M4.33042 5.67985C4.0184 5.80276 3.92858 6.24715 4.16023 6.48353C4.3446 6.6679 4.5148 6.68681 5.9756 6.66318C7.06294 6.64899 7.23313 6.63954 7.34186 6.5639C7.47896 6.47407 7.57351 6.29915 7.57351 6.13842C7.57351 5.98714 7.40332 5.73185 7.26149 5.67985C7.11494 5.62312 4.47225 5.62312 4.33042 5.67985Z" fill="white"/>
<path d="M3.57874 8.36036C3.42273 8.39818 3.22891 8.61565 3.19581 8.78584C3.15799 8.99385 3.25254 9.21605 3.43219 9.32478C3.55511 9.40042 3.67329 9.4146 4.13659 9.4146C4.78426 9.4146 4.94027 9.3626 5.05373 9.09786C5.18138 8.79057 5.04901 8.50219 4.72281 8.37927C4.59044 8.32727 3.76312 8.31781 3.57874 8.36036Z" fill="white"/>
<path d="M12.892 4.99908C12.5752 5.16455 12.353 5.5002 12.3483 5.81222C12.3483 6.10533 12.58 6.49298 12.8447 6.63481C13.2844 6.87592 13.899 6.67736 14.1022 6.22824C14.315 5.75549 14.0786 5.15036 13.6106 4.97545C13.4167 4.89981 13.0575 4.91399 12.892 4.99908ZM13.412 5.82167C13.412 5.9635 13.2466 6.01078 13.1567 5.89732C13.0622 5.78385 13.1284 5.67039 13.2796 5.6893C13.3837 5.69876 13.412 5.72712 13.412 5.82167Z" fill="white"/>
</g>
<defs>
<clipPath id="clip0_121_565">
<rect width="15.38" height="15.38" fill="white" transform="translate(0.694946 0.570557)"/>
</clipPath>
</defs>
</svg>
