<svg width="69" height="68" viewBox="0 0 69 68" fill="none" xmlns="http://www.w3.org/2000/svg">
<path d="M4.5 13.8823C4.5 8.42447 8.92448 4 14.3824 4H54.6176C60.0755 4 64.5 8.42448 64.5 13.8824V54.1176C64.5 59.5755 60.0755 64 54.6176 64H14.3824C8.92448 64 4.5 59.5755 4.5 54.1176V43.6929C4.5 39.7396 6.85592 36.1668 10.4895 34.6095L11.9118 34L10.4895 33.3905C6.85592 31.8332 4.5 28.2604 4.5 24.3071V13.8823Z" fill="#EEF1FB"/>
<path d="M2.73535 43.6924C2.73551 39.7522 4.72171 36.1332 7.9248 34C4.72171 31.8668 2.73551 28.2478 2.73535 24.3076V13.8828C2.73535 7.45032 7.95032 2.23535 14.3828 2.23535H54.6172C61.0497 2.23535 66.2646 7.45032 66.2646 13.8828V54.1172C66.2646 60.5497 61.0497 65.7646 54.6172 65.7646H14.3828C7.95032 65.7646 2.73535 60.5497 2.73535 54.1172V43.6924Z" stroke="#EEF1FB" stroke-opacity="0.17" stroke-width="3.52941"/>
<path d="M45.1472 37.3775L39.9997 38.375C36.5222 36.63 34.3747 34.625 33.1247 31.5L34.0872 26.3375L32.2685 21.5H27.5797C26.1697 21.5 25.0597 22.665 25.271 24.0587C25.796 27.5375 27.346 33.8463 31.8747 38.375C36.631 43.1313 43.4822 45.195 47.2522 46.0163C48.7085 46.3325 49.9997 45.1975 49.9997 43.7062V39.2262L45.1472 37.3775Z" stroke="#050B20" stroke-width="1.875" stroke-linecap="round" stroke-linejoin="round"/>
</svg>
