<svg width="16" height="16" viewBox="0 0 16 16" fill="none" xmlns="http://www.w3.org/2000/svg">
<g opacity="0.5">
<path fill-rule="evenodd" clip-rule="evenodd" d="M2 5.04133C1.99983 4.81693 2.04391 4.5947 2.12972 4.38735C2.21554 4.18 2.3414 3.99161 2.50011 3.83297C2.65881 3.67432 2.84725 3.54853 3.05463 3.4628C3.26201 3.37706 3.48426 3.33307 3.70867 3.33333H4.66667V2H8V3.33333H9.33467C10.5719 3.33369 11.7583 3.82533 12.6332 4.70017C13.508 5.57501 13.9996 6.76145 14 7.99867V12.2933C14.0002 12.5177 13.9561 12.74 13.8703 12.9473C13.7845 13.1547 13.6586 13.3431 13.4999 13.5017C13.3412 13.6603 13.1527 13.7861 12.9454 13.8719C12.738 13.9576 12.5157 14.0016 12.2913 14.0013H3.70867C3.25572 14.001 2.82142 13.8209 2.50108 13.5007C2.18074 13.1805 2.00053 12.7463 2 12.2933V5.04133Z" stroke="#050B20" stroke-width="1.1" stroke-miterlimit="1.5" stroke-linecap="round" stroke-linejoin="round"/>
<path fill-rule="evenodd" clip-rule="evenodd" d="M8 6C8 6 10 7.99533 10 9.258C10 10.3613 9.10333 11.258 8 11.258C6.89667 11.258 6.008 10.3613 6 9.258C6.00667 7.99467 8 6 8 6Z" stroke="#050B20" stroke-width="1.1" stroke-miterlimit="1.5" stroke-linecap="round" stroke-linejoin="round"/>
</g>
</svg>
