<svg width="95" height="96" viewBox="0 0 95 96" fill="none" xmlns="http://www.w3.org/2000/svg">
<path d="M76 5.5C83.732 5.5 90 11.768 90 19.5V76.5C90 84.232 83.732 90.5 76 90.5H19C11.268 90.5 5 84.232 5 76.5V19.5C5 11.768 11.268 5.5 19 5.5H33.7685C39.3688 5.5 44.4304 8.83756 46.6365 13.9851L47.5 16L48.3635 13.9851C50.5696 8.83756 55.6312 5.5 61.2315 5.5H76Z" fill="#FF5354"/>
<path d="M33.7686 3C39.3503 3.00003 44.4778 5.81321 47.5 10.3506C50.5222 5.81321 55.6497 3.00003 61.2314 3H76C85.1127 3 92.5 10.3873 92.5 19.5V76.5C92.5 85.6127 85.1127 93 76 93H19C9.8873 93 2.5 85.6127 2.5 76.5V19.5C2.5 10.3873 9.8873 3 19 3H33.7686Z" stroke="#FF5354" stroke-opacity="0.17" stroke-width="5"/>
<path d="M59.2163 53.4535L51.6666 54.9165C46.5663 52.3572 43.4166 49.4165 41.5833 44.8332L42.9949 37.2615L40.3274 30.1665H33.4506C31.3826 30.1665 29.7546 31.8752 30.0644 33.9193C30.8344 39.0215 33.1078 48.2743 39.7499 54.9165C46.7258 61.8923 56.7743 64.9192 62.3036 66.1237C64.4394 66.5875 66.3333 64.9228 66.3333 62.7357V56.165L59.2163 53.4535Z" stroke="white" stroke-width="2" stroke-linecap="round" stroke-linejoin="round"/>
</svg>
