<svg width="28" height="27" viewBox="0 0 28 27" fill="none" xmlns="http://www.w3.org/2000/svg">
<circle cx="14.1666" cy="13.5" r="13.5" fill="#050B20"/>
<path d="M17.201 6.19863C17.0705 6.33325 16.0478 6.46786 14.9162 6.51274C12.9143 6.55761 11.4999 6.98389 10.4337 7.81402C9.19334 8.8012 7.49606 10.798 7.03909 11.83C5.99461 14.1185 5.97285 14.0736 7.9095 15.2179C9.71558 16.3172 10.8471 17.3493 11.8263 18.8301C12.1527 19.3461 12.4791 19.8172 12.5444 19.8845C12.6097 19.9519 12.8708 20.4679 13.1537 21.0512C13.8282 22.4647 14.0894 22.3749 15.6343 20.266C17.027 18.3589 17.201 15.8685 16.0042 14.3204C15.7866 14.0063 15.5908 13.5801 15.5908 13.3781C15.5908 13.0192 15.6778 13.0192 16.3089 13.2435C17.1358 13.5352 17.9844 14.2531 17.9844 14.657C17.9844 14.8589 18.3108 14.9486 18.9201 14.9486C19.6599 14.9486 19.9863 14.7916 20.6391 14.1858C21.4007 13.4454 21.5313 12.9294 21.0526 12.4807C20.9873 12.4134 20.7915 12.1217 20.6391 11.83C20.4651 11.5384 20.1387 10.9326 19.8993 10.4839C19.6599 10.0576 19.4423 9.45184 19.3988 9.16017C19.3553 8.71146 18.6807 7.72428 18.1367 7.29799C18.0279 7.23069 17.9844 6.91658 18.0279 6.62492C18.0932 6.04158 17.5927 5.79479 17.201 6.19863Z" fill="white"/>
</svg>
