<svg width="16" height="15" viewBox="0 0 16 15" fill="none" xmlns="http://www.w3.org/2000/svg">
<g clip-path="url(#clip0_43_1542)">
<path d="M3.49208 2.54089C3.0877 2.63477 2.65803 2.99944 2.45945 3.40744C2.18143 3.98875 0.979095 6.92779 0.942989 7.11193C0.914104 7.25636 0.906882 8.13374 0.914104 9.9571C0.924935 12.5495 0.924935 12.5965 1.00076 12.7589C1.10908 12.9864 1.286 13.1778 1.49902 13.2897L1.68317 13.3872H2.63998C3.5643 13.3872 3.6004 13.3836 3.74844 13.3041C3.96147 13.1922 4.14922 12.9936 4.25031 12.777C4.32614 12.6109 4.33697 12.5423 4.33697 12.1126V11.636H9.13909V12.0874C9.13909 12.4557 9.15353 12.5712 9.21492 12.7409C9.31601 13.0117 9.53265 13.2283 9.80706 13.3294C10.0093 13.4052 10.067 13.4089 10.9263 13.398C11.7821 13.3872 11.8362 13.3836 11.9806 13.3041C12.2189 13.1778 12.3778 13.0189 12.4861 12.7987L12.5872 12.5929L12.5981 11.0764C12.6053 10.2423 12.6053 9.42995 12.5981 9.27469L12.5872 8.98585L12.1648 9.44439L11.7387 9.89933V10.7695H10.8325L10.5328 11.0511C10.0995 11.4591 9.789 11.5855 9.30157 11.5566C8.9044 11.5313 8.565 11.3544 8.26532 11.0222L8.03785 10.7695H1.76982L1.79148 7.14082L2.44501 5.60631C2.80246 4.76142 3.12741 3.99236 3.16713 3.89487C3.26101 3.64935 3.45237 3.4616 3.66178 3.41105C3.90731 3.34967 9.56153 3.34967 9.76734 3.41105C10.0526 3.49771 10.1609 3.66379 10.5256 4.55923C10.7097 5.00694 10.8722 5.40411 10.8866 5.44383C10.9083 5.5016 10.9336 5.45827 10.9949 5.24524C11.0636 5.00694 11.1899 4.73615 11.3416 4.50146C11.3849 4.43286 11.3668 4.36786 11.1827 3.90571C10.8866 3.16553 10.7242 2.93806 10.327 2.70698C9.96953 2.49756 9.99842 2.50117 6.68026 2.50479C4.98688 2.5084 3.57152 2.52284 3.49208 2.54089ZM3.47403 11.6505C3.48125 11.6577 3.48125 11.8382 3.47042 12.0513C3.45598 12.3798 3.44154 12.4448 3.38377 12.4881C3.326 12.5279 3.15991 12.5387 2.61832 12.5387H1.92147L1.84925 12.4448C1.78426 12.3618 1.77343 12.2968 1.77343 11.9935V11.636H2.6147C3.08047 11.636 3.46681 11.6433 3.47403 11.6505ZM11.7387 11.9935C11.7387 12.2968 11.7279 12.3618 11.6629 12.4448L11.5907 12.5387H10.8722C9.97314 12.5387 10.0093 12.5604 10.0056 12.0513C10.002 11.8527 10.002 11.6794 10.002 11.6613C10.0056 11.6469 10.3956 11.636 10.8722 11.636H11.7387V11.9935Z" fill="#050B20"/>
<path d="M12.9266 3.95625C12.0348 4.25955 11.4391 5.14054 11.4968 6.07569C11.5077 6.24539 11.5329 6.42592 11.5546 6.47647C11.5871 6.56673 11.5546 6.60645 10.9733 7.21664C10.6339 7.57409 9.95509 8.26733 9.46405 8.7656C8.58305 9.65381 8.56861 9.67186 8.52528 9.87045C8.40252 10.4301 8.82497 10.95 9.40628 10.95C9.81066 10.95 9.86121 10.9103 11.2044 9.513C11.8651 8.82337 12.5006 8.16262 12.6089 8.04709L12.8111 7.83406L12.988 7.88461C13.266 7.96404 13.7751 7.94599 14.0892 7.84489C14.4214 7.73657 14.8403 7.45855 15.0316 7.21664C15.3241 6.84836 15.4938 6.37898 15.4938 5.92765C15.4938 5.50882 15.3927 5.28135 15.2085 5.28135C15.1327 5.28135 14.9991 5.4005 14.555 5.86266L13.9954 6.44036L13.6343 6.34287C13.4357 6.28871 13.2588 6.23455 13.2408 6.2165C13.2119 6.19123 12.9663 5.47993 12.9663 5.42217C12.9663 5.40772 13.2191 5.14776 13.5224 4.84447C14.129 4.24149 14.1976 4.12956 14.0531 4.01402C13.8546 3.85155 13.313 3.82266 12.9266 3.95625ZM9.64458 9.71158C9.78539 9.80907 9.8215 9.87406 9.82511 10.0221C9.82511 10.1268 9.79983 10.1846 9.7204 10.2676C9.57959 10.4084 9.39905 10.412 9.24741 10.2712C9.10298 10.1412 9.07771 9.99321 9.1752 9.83795C9.29074 9.65381 9.48571 9.59965 9.64458 9.71158Z" fill="#050B20"/>
<path d="M3.7701 6.13346C3.45959 6.28871 3.43793 6.7256 3.73039 6.90613C3.84593 6.97834 3.9037 6.97834 6.64055 6.97834C9.71318 6.97834 9.61208 6.98556 9.7529 6.75448C9.8901 6.52701 9.80706 6.25261 9.56154 6.13707C9.446 6.08291 9.17881 6.07569 6.6586 6.07569C4.20699 6.07569 3.8712 6.08291 3.7701 6.13346Z" fill="#050B20"/>
<path d="M3.25378 8.46592C3.07686 8.58507 3.00465 8.79448 3.07686 8.98224C3.17074 9.23137 3.26461 9.27109 3.80621 9.28192C4.20699 9.28914 4.30447 9.28192 4.40918 9.22776C4.67637 9.09055 4.73414 8.72949 4.52111 8.51647L4.40918 8.40454L3.89286 8.39371C3.40543 8.38287 3.37293 8.38648 3.25378 8.46592Z" fill="#050B20"/>
</g>
<defs>
<clipPath id="clip0_43_1542">
<rect width="14.5823" height="14.5823" fill="white" transform="translate(0.911499 0.316467)"/>
</clipPath>
</defs>
</svg>
