<svg width="17" height="17" viewBox="0 0 17 17" fill="none" xmlns="http://www.w3.org/2000/svg">
<path d="M5.77153 7.45386H10.9984M5.11816 10.0673H5.77153M10.9984 10.0673H11.6518" stroke="white" stroke-width="0.980047" stroke-linecap="round" stroke-linejoin="round"/>
<path d="M2.50464 12.6807V8.375C2.50477 8.19821 2.54078 8.02328 2.61048 7.8608L4.12564 4.3261C4.22628 4.09097 4.39371 3.89055 4.60718 3.74967C4.82064 3.60879 5.07076 3.53365 5.32652 3.53357L11.4433 3.53357C11.699 3.5336 11.9491 3.60864 12.1625 3.7494C12.376 3.89015 12.5435 4.09044 12.6442 4.32545L14.16 7.86015C14.2297 8.02308 14.2655 8.19847 14.2652 8.37565V12.6807M2.50464 12.6807V14.2487C2.50464 14.3527 2.54594 14.4524 2.61946 14.5259C2.69298 14.5995 2.79269 14.6408 2.89666 14.6408H4.72608C4.83005 14.6408 4.92976 14.5995 5.00328 14.5259C5.0768 14.4524 5.1181 14.3527 5.1181 14.2487V12.6807M2.50464 12.6807H5.1181M14.2652 12.6807V14.2487C14.2652 14.3527 14.2239 14.4524 14.1504 14.5259C14.0769 14.5995 13.9772 14.6408 13.8732 14.6408H12.0438C11.9923 14.6408 11.9413 14.6306 11.8937 14.6109C11.8462 14.5912 11.803 14.5624 11.7666 14.5259C11.7302 14.4895 11.7013 14.4463 11.6816 14.3988C11.6619 14.3512 11.6517 14.3002 11.6517 14.2487V12.6807M14.2652 12.6807H11.6517M5.1181 12.6807H11.6517" stroke="white" stroke-width="0.980047"/>
</svg>
