<svg width="95" height="96" viewBox="0 0 95 96" fill="none" xmlns="http://www.w3.org/2000/svg">
<path d="M76 5.5C83.732 5.5 90 11.768 90 19.5V76.5C90 84.232 83.732 90.5 76 90.5H19C11.268 90.5 5 84.232 5 76.5V19.5C5 11.768 11.268 5.5 19 5.5H33.7685C39.3688 5.5 44.4304 8.83756 46.6365 13.9851L47.5 16L48.3635 13.9851C50.5696 8.83756 55.6312 5.5 61.2315 5.5H76Z" fill="#FF5354"/>
<path d="M33.7686 3C39.3503 3.00003 44.4778 5.81321 47.5 10.3506C50.5222 5.81321 55.6497 3.00003 61.2314 3H76C85.1127 3 92.5 10.3873 92.5 19.5V76.5C92.5 85.6127 85.1127 93 76 93H19C9.8873 93 2.5 85.6127 2.5 76.5V19.5C2.5 10.3873 9.8873 3 19 3H33.7686Z" stroke="#FF5354" stroke-opacity="0.17" stroke-width="5"/>
<path d="M45.2884 31.3107C45.6321 30.9332 46.0508 30.6316 46.5177 30.4253C46.9846 30.2189 47.4895 30.1123 47.9999 30.1123C48.5104 30.1123 49.0153 30.2189 49.4822 30.4253C49.9491 30.6316 50.3678 30.9332 50.7114 31.3107L52.5814 33.3641C52.9445 33.7627 53.391 34.0763 53.8892 34.2826C54.3873 34.4889 54.9249 34.5828 55.4634 34.5576L58.2373 34.4292C58.747 34.4052 59.2561 34.4879 59.7321 34.6719C60.208 34.8559 60.6403 35.1372 61.0013 35.4979C61.3623 35.8585 61.6441 36.2906 61.8285 36.7663C62.013 37.2421 62.0961 37.7512 62.0726 38.2609L61.9424 41.0366C61.9172 41.5751 62.0111 42.1127 62.2174 42.6108C62.4237 43.109 62.7373 43.5555 63.1359 43.9186L65.1893 45.7886C65.5668 46.1322 65.8684 46.5509 66.0747 47.0178C66.2811 47.4847 66.3877 47.9896 66.3877 48.5001C66.3877 49.0106 66.2811 49.5154 66.0747 49.9823C65.8684 50.4492 65.5668 50.8679 65.1893 51.2116L63.1359 53.0816C62.7373 53.4446 62.4237 53.8912 62.2174 54.3893C62.0111 54.8875 61.9172 55.425 61.9424 55.9636L62.0708 58.7374C62.0948 59.2471 62.0121 59.7562 61.8281 60.2322C61.6441 60.7081 61.3628 61.1404 61.0021 61.5014C60.6415 61.8624 60.2094 62.1442 59.7337 62.3287C59.2579 62.5131 58.7488 62.5963 58.2391 62.5727L55.4634 62.4426C54.9249 62.4174 54.3873 62.5113 53.8892 62.7176C53.391 62.9238 52.9445 63.2375 52.5814 63.6361L50.7114 65.6894C50.3678 66.0669 49.9491 66.3685 49.4822 66.5749C49.0153 66.7812 48.5104 66.8878 47.9999 66.8878C47.4895 66.8878 46.9846 66.7812 46.5177 66.5749C46.0508 66.3685 45.6321 66.0669 45.2884 65.6894L43.4184 63.6361C43.0554 63.2375 42.6088 62.9238 42.1107 62.7176C41.6125 62.5113 41.075 62.4174 40.5364 62.4426L37.7626 62.5709C37.2529 62.5949 36.7438 62.5123 36.2678 62.3283C35.7919 62.1442 35.3596 61.8629 34.9986 61.5023C34.6376 61.1416 34.3558 60.7096 34.1713 60.2338C33.9869 59.758 33.9037 59.249 33.9273 58.7392L34.0574 55.9636C34.0826 55.425 33.9887 54.8875 33.7824 54.3893C33.5762 53.8912 33.2625 53.4446 32.8639 53.0816L30.8106 51.2116C30.4331 50.8679 30.1315 50.4492 29.9251 49.9823C29.7188 49.5154 29.6122 49.0106 29.6122 48.5001C29.6122 47.9896 29.7188 47.4847 29.9251 47.0178C30.1315 46.5509 30.4331 46.1322 30.8106 45.7886L32.8639 43.9186C33.2625 43.5555 33.5762 43.109 33.7824 42.6108C33.9887 42.1127 34.0826 41.5751 34.0574 41.0366L33.9291 38.2627C33.9051 37.753 33.9877 37.2439 34.1717 36.7679C34.3558 36.292 34.6371 35.8597 34.9977 35.4987C35.3584 35.1377 35.7904 34.8559 36.2662 34.6715C36.742 34.487 37.251 34.4039 37.7608 34.4274L40.5364 34.5576C41.075 34.5828 41.6125 34.4889 42.1107 34.2826C42.6088 34.0763 43.0554 33.7627 43.4184 33.3641L45.2884 31.3107Z" stroke="white" stroke-width="2"/>
<path d="M40 48.5002L43.6667 52.1668L51 44.8335" stroke="white" stroke-width="2" stroke-linecap="round" stroke-linejoin="round"/>
<path d="M45 48.5002L48.6667 52.1668L56 44.8335" stroke="white" stroke-width="2" stroke-linecap="round" stroke-linejoin="round"/>
</svg>
