<svg width="17" height="17" viewBox="0 0 17 17" fill="none" xmlns="http://www.w3.org/2000/svg">
<path d="M5.77153 6.95386H10.9984M5.11816 9.56732H5.77153M10.9984 9.56732H11.6518" stroke="#050B20" stroke-width="0.980047" stroke-linecap="round" stroke-linejoin="round"/>
<path d="M2.50464 12.1807V7.875C2.50477 7.69821 2.54078 7.52328 2.61048 7.3608L4.12564 3.8261C4.22628 3.59097 4.39371 3.39055 4.60718 3.24967C4.82064 3.10879 5.07076 3.03365 5.32652 3.03357L11.4433 3.03357C11.699 3.0336 11.9491 3.10864 12.1625 3.2494C12.376 3.39015 12.5435 3.59044 12.6442 3.82545L14.16 7.36015C14.2297 7.52308 14.2655 7.69847 14.2652 7.87565V12.1807M2.50464 12.1807V13.7487C2.50464 13.8527 2.54594 13.9524 2.61946 14.0259C2.69298 14.0995 2.79269 14.1408 2.89666 14.1408H4.72608C4.83005 14.1408 4.92976 14.0995 5.00328 14.0259C5.0768 13.9524 5.1181 13.8527 5.1181 13.7487V12.1807M2.50464 12.1807H5.1181M14.2652 12.1807V13.7487C14.2652 13.8527 14.2239 13.9524 14.1504 14.0259C14.0769 14.0995 13.9772 14.1408 13.8732 14.1408H12.0438C11.9923 14.1408 11.9413 14.1306 11.8937 14.1109C11.8462 14.0912 11.803 14.0624 11.7666 14.0259C11.7302 13.9895 11.7013 13.9463 11.6816 13.8988C11.6619 13.8512 11.6517 13.8002 11.6517 13.7487V12.1807M14.2652 12.1807H11.6517M5.1181 12.1807H11.6517" stroke="#050B20" stroke-width="0.980047"/>
</svg>
