<svg width="24" height="25" viewBox="0 0 24 25" fill="none" xmlns="http://www.w3.org/2000/svg">
<g opacity="0.5" clip-path="url(#clip0_152_1614)">
<path d="M12 4.50006V8.50006M12 4.50006C6.47701 4.50006 2.00001 8.97706 2.00001 14.5001C1.9969 16.6646 2.69898 18.7712 4.00001 20.5011H8.50001M12 4.50006C17.523 4.50006 22 8.97706 22 14.5001C22 16.7521 21.256 18.8301 20 20.5011L15.5 20.5001M4.00001 8.50006L6.50001 11.0001M17.5 11.0001L20 8.50006M3.00001 17.5001H6.00001M12 17.5001L13 11.5001M18 17.5001H21" stroke="#050B20" stroke-width="1.25" stroke-linecap="round" stroke-linejoin="round"/>
<path d="M12 23.5001C12.7956 23.5001 13.5587 23.184 14.1213 22.6214C14.6839 22.0588 15 21.2957 15 20.5001C15 19.7044 14.6839 18.9413 14.1213 18.3787C13.5587 17.8161 12.7956 17.5001 12 17.5001C11.2044 17.5001 10.4413 17.8161 9.87868 18.3787C9.31607 18.9413 9 19.7044 9 20.5001C9 21.2957 9.31607 22.0588 9.87868 22.6214C10.4413 23.184 11.2044 23.5001 12 23.5001Z" stroke="#050B20" stroke-width="1.25" stroke-linecap="round" stroke-linejoin="round"/>
</g>
<defs>
<clipPath id="clip0_152_1614">
<rect width="24" height="24" fill="white" transform="translate(0 0.500061)"/>
</clipPath>
</defs>
</svg>
