<svg width="68" height="68" viewBox="0 0 68 68" fill="none" xmlns="http://www.w3.org/2000/svg">
<path d="M4 13.8823C4 8.42447 8.42448 4 13.8824 4H54.1176C59.5755 4 64 8.42448 64 13.8824V54.1176C64 59.5755 59.5755 64 54.1176 64H13.8824C8.42448 64 4 59.5755 4 54.1176V43.6929C4 39.7396 6.35592 36.1668 9.9895 34.6095L11.4118 34L9.9895 33.3905C6.35592 31.8332 4 28.2604 4 24.3071V13.8823Z" fill="#FF5354"/>
<path d="M2.23535 43.6924C2.23551 39.7522 4.22171 36.1332 7.4248 34C4.22171 31.8668 2.23551 28.2478 2.23535 24.3076V13.8828C2.23535 7.45032 7.45032 2.23535 13.8828 2.23535H54.1172C60.5497 2.23535 65.7646 7.45032 65.7646 13.8828V54.1172C65.7646 60.5497 60.5497 65.7646 54.1172 65.7646H13.8828C7.45032 65.7646 2.23535 60.5497 2.23535 54.1172V43.6924Z" stroke="#FF5354" stroke-opacity="0.17" stroke-width="3.52941"/>
<path d="M43.25 34.6251C43.4158 34.6251 43.5747 34.5592 43.6919 34.442C43.8092 34.3248 43.875 34.1658 43.875 34.0001C43.875 33.8343 43.8092 33.6753 43.6919 33.5581C43.5747 33.4409 43.4158 33.3751 43.25 33.3751C43.0842 33.3751 42.9253 33.4409 42.8081 33.5581C42.6908 33.6753 42.625 33.8343 42.625 34.0001C42.625 34.1658 42.6908 34.3248 42.8081 34.442C42.9253 34.5592 43.0842 34.6251 43.25 34.6251ZM37 34.6251C37.1658 34.6251 37.3247 34.5592 37.4419 34.442C37.5592 34.3248 37.625 34.1658 37.625 34.0001C37.625 33.8343 37.5592 33.6753 37.4419 33.5581C37.3247 33.4409 37.1658 33.3751 37 33.3751C36.8342 33.3751 36.6753 33.4409 36.5581 33.5581C36.4408 33.6753 36.375 33.8343 36.375 34.0001C36.375 34.1658 36.4408 34.3248 36.5581 34.442C36.6753 34.5592 36.8342 34.6251 37 34.6251ZM30.75 34.6251C30.9158 34.6251 31.0747 34.5592 31.1919 34.442C31.3092 34.3248 31.375 34.1658 31.375 34.0001C31.375 33.8343 31.3092 33.6753 31.1919 33.5581C31.0747 33.4409 30.9158 33.3751 30.75 33.3751C30.5842 33.3751 30.4253 33.4409 30.3081 33.5581C30.1908 33.6753 30.125 33.8343 30.125 34.0001C30.125 34.1658 30.1908 34.3248 30.3081 34.442C30.4253 34.5592 30.5842 34.6251 30.75 34.6251Z" fill="white" stroke="white" stroke-width="1.875" stroke-linecap="round" stroke-linejoin="round"/>
<path d="M37 46.5C43.9037 46.5 49.5 40.9037 49.5 34C49.5 27.0963 43.9037 21.5 37 21.5C30.0963 21.5 24.5 27.0963 24.5 34C24.5 36.2762 25.1088 38.4125 26.1725 40.25L25.125 45.875L30.75 44.8275C32.6495 45.926 34.8057 46.503 37 46.5Z" stroke="white" stroke-width="1.875" stroke-linecap="round" stroke-linejoin="round"/>
</svg>
