<svg width="16" height="17" viewBox="0 0 16 17" fill="none" xmlns="http://www.w3.org/2000/svg">
<g opacity="0.5">
<path d="M12 8.5C12 9.56087 11.5786 10.5783 10.8284 11.3284C10.0783 12.0786 9.06087 12.5 8 12.5C6.93913 12.5 5.92172 12.0786 5.17157 11.3284C4.42143 10.5783 4 9.56087 4 8.5C4 7.43913 4.42143 6.42172 5.17157 5.67157C5.92172 4.92143 6.93913 4.5 8 4.5C9.06087 4.5 10.0783 4.92143 10.8284 5.67157C11.5786 6.42172 12 7.43913 12 8.5ZM12 8.5H8M8 8.5L6 5.03533M8 8.5L6 11.9647" stroke="#050B20" stroke-linecap="round" stroke-linejoin="round"/>
<path d="M8.00016 13.1667C8.613 13.1667 9.21983 13.046 9.78602 12.8114C10.3522 12.5769 10.8667 12.2332 11.3 11.7998C11.7333 11.3665 12.0771 10.8521 12.3116 10.2859C12.5461 9.71968 12.6668 9.11285 12.6668 8.50001C12.6668 7.88717 12.5461 7.28034 12.3116 6.71415C12.0771 6.14797 11.7333 5.63352 11.3 5.20018C10.8667 4.76684 10.3522 4.42309 9.78602 4.18857C9.21983 3.95405 8.613 3.83334 8.00016 3.83334C6.76249 3.83334 5.5755 4.32501 4.70033 5.20018C3.82516 6.07535 3.3335 7.26233 3.3335 8.50001C3.3335 9.73769 3.82516 10.9247 4.70033 11.7998C5.5755 12.675 6.76249 13.1667 8.00016 13.1667Z" stroke="#050B20" stroke-linecap="round" stroke-linejoin="round" stroke-dasharray="0.83 2.5"/>
<path d="M8.00016 15.1667C11.6822 15.1667 14.6668 12.182 14.6668 8.50001C14.6668 4.81801 11.6822 1.83334 8.00016 1.83334C4.31816 1.83334 1.3335 4.81801 1.3335 8.50001C1.3335 12.182 4.31816 15.1667 8.00016 15.1667Z" stroke="#050B20" stroke-linecap="round" stroke-linejoin="round"/>
<path d="M8 10.5C8.53043 10.5 9.03914 10.2893 9.41421 9.91421C9.78929 9.53914 10 9.03043 10 8.5C10 7.96957 9.78929 7.46086 9.41421 7.08579C9.03914 6.71071 8.53043 6.5 8 6.5C7.46957 6.5 6.96086 6.71071 6.58579 7.08579C6.21071 7.46086 6 7.96957 6 8.5C6 9.03043 6.21071 9.53914 6.58579 9.91421C6.96086 10.2893 7.46957 10.5 8 10.5Z" stroke="#050B20" stroke-linecap="round" stroke-linejoin="round"/>
</g>
</svg>
