<svg width="16" height="17" viewBox="0 0 16 17" fill="none" xmlns="http://www.w3.org/2000/svg">
<g clip-path="url(#clip0_54_1709)">
<path d="M13.3333 7.16671C13.3333 10.112 7.99996 15.1667 7.99996 15.1667C7.99996 15.1667 2.66663 10.112 2.66663 7.16671C2.66663 5.75222 3.22853 4.39567 4.22872 3.39547C5.22892 2.39528 6.58547 1.83337 7.99996 1.83337C9.41445 1.83337 10.771 2.39528 11.7712 3.39547C12.7714 4.39567 13.3333 5.75222 13.3333 7.16671Z" stroke="#050B20" stroke-width="1.25"/>
<path d="M7.99992 7.83333C8.17673 7.83333 8.3463 7.7631 8.47132 7.63807C8.59635 7.51305 8.66659 7.34348 8.66659 7.16667C8.66659 6.98986 8.59635 6.82029 8.47132 6.69526C8.3463 6.57024 8.17673 6.5 7.99992 6.5C7.82311 6.5 7.65354 6.57024 7.52851 6.69526C7.40349 6.82029 7.33325 6.98986 7.33325 7.16667C7.33325 7.34348 7.40349 7.51305 7.52851 7.63807C7.65354 7.7631 7.82311 7.83333 7.99992 7.83333Z" fill="#050B20" stroke="#050B20" stroke-width="1.25" stroke-linecap="round" stroke-linejoin="round"/>
</g>
<defs>
<clipPath id="clip0_54_1709">
<rect width="16" height="16" fill="white" transform="translate(0 0.5)"/>
</clipPath>
</defs>
</svg>
