<svg width="20" height="21" viewBox="0 0 20 21" fill="none" xmlns="http://www.w3.org/2000/svg">
<path d="M7.15587 7.36333L9.32087 3.00333C9.38389 2.87715 9.48082 2.77102 9.60078 2.69684C9.72074 2.62267 9.85899 2.58337 10 2.58337C10.1411 2.58337 10.2793 2.62267 10.3993 2.69684C10.5193 2.77102 10.6162 2.87715 10.6792 3.00333L12.8442 7.36333L17.6842 8.06666C17.8238 8.08602 17.9552 8.14424 18.0633 8.23467C18.1714 8.3251 18.2519 8.44411 18.2956 8.5781C18.3393 8.71209 18.3444 8.85567 18.3104 8.99245C18.2765 9.12923 18.2047 9.25371 18.1034 9.35166L14.6017 12.7433L15.4284 17.535C15.5342 18.15 14.8842 18.6183 14.3284 18.3283L10 16.065L5.67087 18.3283C5.11587 18.6192 4.46587 18.15 4.5717 17.5342L5.39837 12.7425L1.8967 9.35083C1.79586 9.2528 1.72453 9.12846 1.69084 8.99192C1.65714 8.85538 1.66243 8.71213 1.70609 8.57845C1.74976 8.44476 1.83005 8.32601 1.93784 8.23569C2.04564 8.14536 2.17661 8.08709 2.31587 8.06749L7.15587 7.36333Z" stroke="#FF5354" stroke-width="1.25" stroke-linecap="round" stroke-linejoin="round"/>
</svg>
