<svg width="64" height="64" viewBox="0 0 64 64" fill="none" xmlns="http://www.w3.org/2000/svg">
<path d="M50.7765 4C55.8705 4 60 8.12952 60 13.2235V50.7765C60 55.8705 55.8705 60 50.7765 60H13.2235C8.12951 60 4 55.8705 4 50.7765V13.2235C4 8.12951 8.12951 4 13.2235 4H22.9533C26.643 4 29.9777 6.19886 31.4311 9.59021L32 10.9176L32.5689 9.59021C34.0223 6.19886 37.357 4 41.0467 4H50.7765Z" fill="#FF5354"/>
<path d="M22.9531 2.35254C26.6307 2.35254 30.0089 4.20669 32 7.19629C33.9911 4.20669 37.3693 2.35254 41.0469 2.35254H50.7764C56.78 2.35254 61.6475 7.21997 61.6475 13.2236V50.7764C61.6475 56.78 56.78 61.6475 50.7764 61.6475H13.2236C7.21997 61.6475 2.35254 56.78 2.35254 50.7764V13.2236C2.35254 7.21997 7.21997 2.35254 13.2236 2.35254H22.9531Z" stroke="#FF5354" stroke-opacity="0.17" stroke-width="3.29412"/>
<path d="M28.0375 30.2584H36.9218M26.927 34.7005H28.0375M36.9218 34.7005H38.0324" stroke="white" stroke-width="1.66581" stroke-linecap="round" stroke-linejoin="round"/>
<path d="M22.4846 39.1426V31.8242C22.4848 31.5236 22.5461 31.2263 22.6645 30.9502L25.2399 24.9421C25.4109 24.5425 25.6955 24.2018 26.0583 23.9624C26.4212 23.7229 26.8463 23.5952 27.281 23.5951H37.6779C38.1125 23.5951 38.5375 23.7227 38.9004 23.9619C39.2632 24.2012 39.5478 24.5416 39.7191 24.941L42.2955 30.949C42.4139 31.226 42.4747 31.5241 42.4743 31.8253V39.1426M22.4846 39.1426V41.8079C22.4846 41.9846 22.5548 42.1541 22.6798 42.2791C22.8047 42.404 22.9742 42.4742 23.1509 42.4742H26.2604C26.4372 42.4742 26.6067 42.404 26.7316 42.2791C26.8566 42.1541 26.9268 41.9846 26.9268 41.8079V39.1426M22.4846 39.1426H26.9268M42.4743 39.1426V41.8079C42.4743 41.9846 42.4041 42.1541 42.2791 42.2791C42.1542 42.404 41.9847 42.4742 41.808 42.4742H38.6985C38.611 42.4742 38.5243 42.457 38.4435 42.4235C38.3626 42.39 38.2892 42.3409 38.2273 42.2791C38.1654 42.2172 38.1164 42.1437 38.0829 42.0629C38.0494 41.982 38.0322 41.8954 38.0322 41.8079V39.1426M42.4743 39.1426H38.0322M26.9268 39.1426H38.0322" stroke="white" stroke-width="1.66581"/>
</svg>
