<svg width="28" height="27" viewBox="0 0 28 27" fill="none" xmlns="http://www.w3.org/2000/svg">
<circle cx="13.8333" cy="13.5" r="13.5" fill="#FF5354"/>
<path d="M12.5703 3.55854C8.1463 4.27604 4.7862 7.58919 4.091 11.9364C3.91194 13.0337 4.00674 15.0068 4.29113 16.0725C5.26019 19.7339 8.3043 22.625 11.9804 23.3636C13.1707 23.5957 15.6249 23.5219 16.6256 23.2159C19.5327 22.3295 21.6605 20.578 22.9561 18.0035C24.0831 15.756 24.3148 12.981 23.567 10.5436C22.9666 8.57047 21.6499 6.70287 20.0067 5.4789C19.1009 4.80361 17.542 4.05445 16.4676 3.78012C15.5301 3.53743 13.4445 3.42137 12.5703 3.55854ZM15.4037 5.26787C15.4458 5.29952 15.33 5.68993 15.1509 6.13309C14.5295 7.68415 14.2767 8.88701 14.2767 10.2165C14.2661 11.5565 14.4031 12.1474 14.9402 13.1498C15.2773 13.7934 15.8882 14.5004 16.5202 15.0068L16.8889 15.2917L16.2358 14.9752C15.4353 14.5742 14.4557 14.3316 13.6763 14.3316C12.9811 14.3316 11.8119 14.5742 11.3695 14.8064C10.8744 15.0596 10.9797 14.9224 11.5696 14.5426C13.9607 13.0021 14.7191 9.76278 13.5077 6.28081C13.3603 5.85875 13.2128 5.43669 13.1812 5.33118C13.1285 5.14125 13.1917 5.1307 14.2345 5.17291C14.8455 5.18346 15.3721 5.23622 15.4037 5.26787ZM12.4123 5.43669C12.4123 5.54221 12.3385 6.05923 12.2543 6.59735C11.8224 9.27742 10.6427 11.6198 8.70457 13.6457C7.76711 14.6375 6.56632 15.6083 6.13445 15.7455C5.92379 15.8088 5.89219 15.756 5.76579 15.1018C5.69206 14.7114 5.62886 13.9306 5.63939 13.3714C5.68152 9.76278 8.01991 6.63956 11.5169 5.51055C12.4228 5.21511 12.4123 5.21511 12.4123 5.43669ZM17.7842 6.04868C18.6269 6.47073 19.1536 6.85059 19.8803 7.57864C21.6921 9.36183 22.6295 12.0313 22.3135 14.4898C22.1977 15.3973 21.9343 16.3363 21.7869 16.3363C21.6394 16.3363 20.6387 15.5028 19.9646 14.8169C18.0581 12.886 16.7414 10.2587 16.2569 7.43091C16.1726 6.91389 16.0989 6.2386 16.0989 5.93261V5.37338L16.6572 5.56331C16.9626 5.66883 17.4682 5.8904 17.7842 6.04868ZM9.83162 15.6294C8.9995 16.2414 8.2727 16.9167 7.75657 17.5392C7.45111 17.9085 7.15618 18.2039 7.09298 18.1934C6.90338 18.1406 6.13445 16.5685 6.25032 16.4524C6.31352 16.3996 6.84018 16.2519 7.44058 16.1253C8.03044 16.0092 8.83097 15.7982 9.23123 15.661C10.1266 15.3445 10.2214 15.3339 9.83162 15.6294ZM19.1009 16.3469C19.617 16.5157 20.3754 16.7162 20.8073 16.79C21.2286 16.8534 21.5762 16.9589 21.5762 17.0222C21.5762 17.2438 20.4597 18.9531 20.3754 18.8581C20.3543 18.837 20.0489 18.4572 19.7118 18.0246C18.9534 17.0749 18.4373 16.5368 17.7316 15.9354L17.2049 15.4817L17.6894 15.756C17.9528 15.9037 18.5953 16.1675 19.1009 16.3469ZM15.646 17.6447C17.0153 17.919 18.6269 18.4994 19.5433 19.0375C20.0067 19.3013 20.0067 19.3118 19.8171 19.5229C19.1114 20.3142 17.4788 21.2533 16.1305 21.6332C14.9718 21.9708 13.0337 21.9602 11.8329 21.6226C10.569 21.2639 9.27336 20.5358 8.29377 19.6284C7.84084 19.1958 7.46164 18.8054 7.46164 18.7632C7.46164 18.6576 8.7783 18.1301 9.67363 17.8768C11.3484 17.3915 13.8659 17.2965 15.646 17.6447Z" fill="white"/>
</svg>
