<svg width="96" height="96" viewBox="0 0 96 96" fill="none" xmlns="http://www.w3.org/2000/svg">
<path d="M76.5 5.51324C84.232 5.51324 90.5 11.7813 90.5 19.5132V76.5132C90.5 84.2452 84.232 90.5132 76.5 90.5132H19.5C11.768 90.5132 5.5 84.2452 5.5 76.5132V19.5132C5.5 11.7813 11.768 5.51324 19.5 5.51324H34.2685C39.8688 5.51324 44.9304 8.8508 47.1365 13.9984L48 16.0132L48.8635 13.9984C51.0696 8.8508 56.1312 5.51324 61.7315 5.51324H76.5Z" fill="#FF5354"/>
<path d="M34.2686 3.01324C39.8503 3.01328 44.9778 5.82646 48 10.3638C51.0222 5.82646 56.1497 3.01328 61.7314 3.01324H76.5C85.6127 3.01324 93 10.4005 93 19.5132V76.5132C93 85.6259 85.6127 93.0132 76.5 93.0132H19.5C10.3873 93.0132 3 85.6259 3 76.5132V19.5132C3 10.4005 10.3873 3.01324 19.5 3.01324H34.2686Z" stroke="#FF5354" stroke-opacity="0.17" stroke-width="5"/>
<path d="M36.0049 30.5804C35.2219 30.8628 34.4004 31.4019 33.9383 31.9539C33.4248 32.5443 32.9884 33.4942 30.2029 40.0535L28.2005 44.7772V53.5059C28.2005 63.0817 28.162 62.6453 28.9835 63.5823C29.7793 64.4808 30.0489 64.545 33.4377 64.545C36.7366 64.545 37.019 64.4937 37.802 63.7363C38.585 62.9918 38.7647 62.4655 38.8289 60.7968L38.8802 59.295L44.8876 59.2565C50.7665 59.218 50.9077 59.218 51.2672 58.9484C51.6907 58.6275 51.9218 57.8959 51.7421 57.3952C51.6779 57.2027 51.434 56.9075 51.1901 56.7534L50.7537 56.4582H30.8961V45.4832L33.2965 39.784C35.8509 33.7509 36.0691 33.353 36.9291 33.1733C37.1602 33.1348 41.2934 33.0963 46.1327 33.0963C54.5661 33.0963 54.9255 33.1091 55.4004 33.3402C55.67 33.4814 55.978 33.7253 56.0807 33.8921C56.1834 34.059 57.3002 36.6006 58.5581 39.5657C60.2012 43.4038 60.9457 44.9955 61.151 45.1238C61.5618 45.3934 62.1779 45.2522 62.7812 44.7516C63.2305 44.3793 63.269 44.3151 63.2177 43.8145C63.1663 43.3653 62.0496 40.6825 59.0844 33.8921C58.4298 32.3646 58.0447 31.8127 57.2488 31.2479C56.0166 30.375 56.4915 30.4135 45.9786 30.4135C38.4823 30.4135 36.3771 30.452 36.0049 30.5804ZM36.1076 60.4631C36.0819 61.413 36.0306 61.6697 35.838 61.8109C35.5428 62.0163 31.5379 62.0548 31.14 61.8494C30.9218 61.7339 30.8961 61.567 30.8961 60.5016V59.2822H36.1589L36.1076 60.4631Z" fill="white"/>
<path d="M36.9676 42.5309C36.544 42.8261 36.3643 43.5065 36.5825 44.0327C36.9419 44.8928 36.39 44.8414 45.5165 44.8799C50.0734 44.9056 54.0013 44.8799 54.2452 44.8414C54.9126 44.7131 55.2849 44.2638 55.2849 43.5578C55.2849 43.1085 55.2079 42.8903 54.964 42.6593L54.6559 42.3384H45.953C38.4053 42.3384 37.2115 42.364 36.9676 42.5309Z" fill="white"/>
<path d="M59.0587 47.6012C58.1859 47.9478 58.1345 49.5908 58.9817 49.9887C59.0972 50.0529 59.9958 50.1299 60.9585 50.1685L62.7299 50.2326L60.5734 52.4148C52.769 60.2962 52.5893 60.4888 52.5893 61.0279C52.5893 61.6184 52.846 62.0291 53.3595 62.2987C53.8087 62.5297 54.2323 62.5426 54.5789 62.3244C54.7201 62.2345 57.0948 59.8855 59.8417 57.1C62.6015 54.3146 64.8864 52.0169 64.9377 51.9912C64.9891 51.9655 65.0276 52.5175 65.0147 53.2106C64.9762 55.5212 65.0147 55.9062 65.3356 56.2657C65.8619 56.8946 67.2226 56.7919 67.5948 56.0988C67.6718 55.9576 67.736 54.199 67.7617 52.0425L67.8002 48.2174L67.3766 47.8451L66.9658 47.4729L63.1407 47.4857C61.0483 47.4857 59.1999 47.537 59.0587 47.6012Z" fill="white"/>
<path d="M35.6968 48.872C34.9652 49.1801 34.6314 50.284 35.0807 50.9258C35.4273 51.4136 36.0306 51.5804 37.4426 51.5804C38.9444 51.5804 39.5092 51.4007 39.8044 50.8231C40.1125 50.2326 40.0611 49.7192 39.6375 49.2442L39.2653 48.8207L37.6094 48.795C36.7109 48.7693 35.838 48.8078 35.6968 48.872Z" fill="white"/>
</svg>
