<svg width="64" height="64" viewBox="0 0 64 64" fill="none" xmlns="http://www.w3.org/2000/svg">
<path d="M50.7765 4C55.8705 4 60 8.12952 60 13.2235V50.7765C60 55.8705 55.8705 60 50.7765 60H13.2235C8.12951 60 4 55.8705 4 50.7765V13.2235C4 8.12951 8.12951 4 13.2235 4H22.9533C26.643 4 29.9777 6.19886 31.4311 9.59021L32 10.9176L32.5689 9.59021C34.0223 6.19886 37.357 4 41.0467 4H50.7765Z" fill="#FF5354"/>
<path d="M22.9531 2.35254C26.6307 2.35254 30.0089 4.20669 32 7.19629C33.9911 4.20669 37.3693 2.35254 41.0469 2.35254H50.7764C56.78 2.35254 61.6475 7.21997 61.6475 13.2236V50.7764C61.6475 56.78 56.78 61.6475 50.7764 61.6475H13.2236C7.21997 61.6475 2.35254 56.78 2.35254 50.7764V13.2236C2.35254 7.21997 7.21997 2.35254 13.2236 2.35254H22.9531Z" stroke="#FF5354" stroke-opacity="0.17" stroke-width="3.29412"/>
<path d="M31.9998 31.4581V36.8748M31.9998 27.1356L32.0107 27.1237M31.9998 42.8331C37.9831 42.8331 42.8332 37.9831 42.8332 31.9998C42.8332 26.0166 37.9831 21.1665 31.9998 21.1665C26.0166 21.1665 21.1665 26.0166 21.1665 31.9998C21.1665 37.9831 26.0166 42.8331 31.9998 42.8331Z" stroke="white" stroke-width="2.06375" stroke-linecap="round" stroke-linejoin="round"/>
</svg>
