<svg width="16" height="17" viewBox="0 0 16 17" fill="none" xmlns="http://www.w3.org/2000/svg">
<g opacity="0.5">
<path fill-rule="evenodd" clip-rule="evenodd" d="M2 5.54133C1.99983 5.31693 2.04391 5.0947 2.12972 4.88735C2.21554 4.68 2.3414 4.49161 2.50011 4.33297C2.65881 4.17432 2.84725 4.04853 3.05463 3.9628C3.26201 3.87706 3.48426 3.83307 3.70867 3.83333H4.66667V2.5H8V3.83333H9.33467C10.5719 3.83369 11.7583 4.32533 12.6332 5.20017C13.508 6.07501 13.9996 7.26145 14 8.49867V12.7933C14.0002 13.0177 13.9561 13.24 13.8703 13.4473C13.7845 13.6547 13.6586 13.8431 13.4999 14.0017C13.3412 14.1603 13.1527 14.2861 12.9454 14.3719C12.738 14.4576 12.5157 14.5016 12.2913 14.5013H3.70867C3.25572 14.501 2.82142 14.3209 2.50108 14.0007C2.18074 13.6805 2.00053 13.2463 2 12.7933V5.54133Z" stroke="#050B20" stroke-miterlimit="1.5" stroke-linecap="round" stroke-linejoin="round"/>
<path fill-rule="evenodd" clip-rule="evenodd" d="M8 6.5C8 6.5 10 8.49533 10 9.758C10 10.8613 9.10333 11.758 8 11.758C6.89667 11.758 6.008 10.8613 6 9.758C6.00667 8.49467 8 6.5 8 6.5Z" stroke="#050B20" stroke-miterlimit="1.5" stroke-linecap="round" stroke-linejoin="round"/>
</g>
</svg>
