<svg width="96" height="96" viewBox="0 0 96 96" fill="none" xmlns="http://www.w3.org/2000/svg">
<path d="M76.5 5.01324C84.232 5.01324 90.5 11.2813 90.5 19.0132V76.0132C90.5 83.7452 84.232 90.0132 76.5 90.0132H19.5C11.768 90.0132 5.5 83.7452 5.5 76.0132V19.0132C5.5 11.2813 11.768 5.01324 19.5 5.01324H34.2685C39.8688 5.01324 44.9304 8.3508 47.1365 13.4984L48 15.5132L48.8635 13.4984C51.0696 8.3508 56.1312 5.01324 61.7315 5.01324H76.5Z" fill="#FF5354"/>
<path d="M34.2686 2.51324C39.8503 2.51328 44.9778 5.32646 48 9.86383C51.0222 5.32646 56.1497 2.51328 61.7314 2.51324H76.5C85.6127 2.51324 93 9.90055 93 19.0132V76.0132C93 85.1259 85.6127 92.5132 76.5 92.5132H19.5C10.3873 92.5132 3 85.1259 3 76.0132V19.0132C3 9.90055 10.3873 2.51324 19.5 2.51324H34.2686Z" stroke="#FF5354" stroke-opacity="0.17" stroke-width="5"/>
<path d="M59.191 28.3827C58.8434 28.5734 58.8434 28.5846 58.0586 31.0737L57.4531 32.9799L55.1657 33.0359C53.596 33.0696 52.7887 33.1368 52.6205 33.2378C52.0935 33.5293 51.8581 34.4375 52.1832 34.8972C52.2729 35.0205 53.1363 35.7269 54.0893 36.4557C55.0536 37.1958 55.8385 37.8349 55.8385 37.8909C55.8385 37.947 55.5582 38.9561 55.2106 40.1334C54.8069 41.5126 54.6163 42.3535 54.6612 42.5441C54.6948 42.6899 54.8854 42.9702 55.0648 43.1608C55.3676 43.4523 55.4573 43.486 55.9394 43.4411C56.4103 43.3963 56.6458 43.2505 58.1034 42.1405C59.0116 41.4453 59.7965 40.8847 59.8638 40.8847C59.931 40.8847 60.6935 41.4117 61.5569 42.0508C62.409 42.7011 63.2163 43.2841 63.3396 43.3402C63.62 43.4972 64.3151 43.4972 64.5954 43.3514C64.8533 43.2057 65.1449 42.6675 65.1449 42.3423C65.1449 42.2077 64.8645 41.2098 64.5282 40.111C64.1918 39.0122 63.9115 38.0367 63.9115 37.947C63.9115 37.8461 64.7188 37.1733 65.7055 36.4445C67.7237 34.9421 67.948 34.6505 67.7349 33.9217C67.4995 33.1593 67.3089 33.1032 64.7636 33.0359L62.5099 32.9799L61.7587 30.9056C61.1644 29.2685 60.929 28.764 60.6599 28.5173C60.2786 28.1697 59.6844 28.1136 59.191 28.3827Z" fill="white"/>
<path d="M35.9924 33.305C34.7478 33.6526 33.649 34.4711 33.0435 35.5139C32.8865 35.783 31.7316 38.4516 30.4758 41.4453L28.1997 46.8834V64.5991L28.4576 65.07C28.8388 65.7876 29.3546 66.3146 29.9825 66.651L30.5543 66.9537H36.4969L37.0688 66.651C37.7415 66.3034 38.2909 65.7091 38.6049 65.0027C38.7955 64.5879 38.8516 64.1842 38.8852 63.0293L38.9301 61.5717L45.7921 61.6054L52.6429 61.6502L52.699 63.1751C52.7663 64.9579 52.9569 65.4961 53.7418 66.1688C54.6163 66.9201 55.076 67.0098 57.9128 67.0098C60.1105 67.0098 60.5029 66.9874 60.9962 66.7967C61.8596 66.4716 62.3978 65.9782 62.8127 65.1261L63.1827 64.3748V47.3319L62.7005 46.1545C62.4314 45.5042 62.1623 44.9212 62.0951 44.8427C62.039 44.7754 61.5681 44.4054 61.0523 44.0354L60.1217 43.3514L59.6059 43.8784C59.2471 44.2372 59.1013 44.4615 59.1462 44.596C59.1798 44.7081 59.4826 45.4369 59.8189 46.2218L60.4356 47.657V58.8247H30.8346V47.5897L33.0435 42.2526C35.4766 36.3548 35.5439 36.2315 36.5866 35.9624C36.9454 35.8727 39.1431 35.8391 43.8187 35.8391H50.535L50.378 35.2448C50.2322 34.6954 50.2435 33.7647 50.4116 33.3275C50.4789 33.1593 49.8286 33.1481 43.4935 33.1593C38.2573 33.1705 36.3736 33.2041 35.9924 33.305ZM36.2166 62.6593C36.2166 63.6797 36.1942 63.8254 35.97 64.0609C35.7345 64.3188 35.6784 64.3188 33.5256 64.3188C31.8101 64.3188 31.2831 64.2851 31.1037 64.1618C30.9243 64.0273 30.8795 63.8254 30.8346 62.8051C30.801 62.1436 30.801 61.5829 30.8234 61.5605C30.8459 61.5381 32.0792 61.5157 33.5481 61.5157H36.2166V62.6593ZM60.4356 62.749C60.4356 64.3748 60.5253 64.3188 57.924 64.3188C55.3115 64.3188 55.4012 64.3748 55.39 62.8051C55.3788 62.1884 55.3788 61.6614 55.3788 61.6278C55.39 61.5941 56.5225 61.5829 57.9128 61.6054L60.4356 61.639V62.749Z" fill="white"/>
<path d="M37.1249 44.439C36.3848 44.809 36.1269 45.65 36.553 46.3564C36.9903 47.074 36.71 47.0515 45.8145 47.0515C53.2148 47.0515 54.1118 47.0291 54.4481 46.8721C54.8966 46.6591 55.1657 46.2106 55.1657 45.6836C55.1657 45.3472 55.1097 45.2912 54.6051 45.0557C54.3024 44.9212 53.9099 44.6745 53.7193 44.5287L53.3942 44.2484H45.4557C38.2685 44.2484 37.4724 44.2708 37.1249 44.439Z" fill="white"/>
<path d="M35.1963 51.615C34.232 52.2093 34.3554 53.7566 35.4093 54.1939C35.7457 54.3397 36.0821 54.3509 37.2258 54.2836C38.0667 54.2388 38.7394 54.1491 38.9301 54.0481C39.8046 53.5996 39.7822 52.0523 38.9076 51.5926C38.4255 51.3459 35.6112 51.3571 35.1963 51.615Z" fill="white"/>
</svg>
