<svg width="68" height="68" viewBox="0 0 68 68" fill="none" xmlns="http://www.w3.org/2000/svg">
<path d="M4 13.8823C4 8.42447 8.42448 4 13.8824 4H54.1176C59.5755 4 64 8.42448 64 13.8824V54.1176C64 59.5755 59.5755 64 54.1176 64H13.8824C8.42448 64 4 59.5755 4 54.1176V43.6929C4 39.7396 6.35592 36.1668 9.9895 34.6095L11.4118 34L9.9895 33.3905C6.35592 31.8332 4 28.2604 4 24.3071V13.8823Z" fill="#FF5354"/>
<path d="M2.23535 43.6924C2.23551 39.7522 4.22171 36.1332 7.4248 34C4.22171 31.8668 2.23551 28.2478 2.23535 24.3076V13.8828C2.23535 7.45032 7.45032 2.23535 13.8828 2.23535H54.1172C60.5497 2.23535 65.7646 7.45032 65.7646 13.8828V54.1172C65.7646 60.5497 60.5497 65.7646 54.1172 65.7646H13.8828C7.45032 65.7646 2.23535 60.5497 2.23535 54.1172V43.6924Z" stroke="#FF5354" stroke-opacity="0.17" stroke-width="3.52941"/>
<path d="M30.25 42.75L23.7375 44.9212C23.6247 44.9589 23.5045 44.9692 23.3869 44.9513C23.2693 44.9333 23.1576 44.8877 23.0612 44.8181C22.9647 44.7485 22.8862 44.6569 22.8321 44.551C22.778 44.445 22.7498 44.3277 22.75 44.2087V25.7913C22.75 25.6339 22.7995 25.4806 22.8915 25.3529C22.9835 25.2253 23.1133 25.1298 23.2625 25.08L30.25 22.75M30.25 42.75L37.75 45.25M30.25 42.75V22.75M30.25 22.75L37.75 25.25M37.75 45.25L44.7375 42.9212C44.8869 42.8714 45.0169 42.7757 45.1089 42.6478C45.2008 42.5199 45.2502 42.3663 45.25 42.2087V23.79C45.25 23.6711 45.2217 23.554 45.1675 23.4482C45.1133 23.3424 45.0348 23.251 44.9383 23.1816C44.8419 23.1121 44.7303 23.0666 44.6128 23.0487C44.4953 23.0308 44.3752 23.0411 44.2625 23.0788L37.75 25.25M37.75 45.25V25.25" stroke="white" stroke-width="1.875" stroke-linecap="round" stroke-linejoin="round"/>
</svg>
