<svg width="17" height="17" viewBox="0 0 17 17" fill="none" xmlns="http://www.w3.org/2000/svg">
<g opacity="0.5">
<path d="M8.50016 14.8333C4.81816 14.8333 1.8335 11.8487 1.8335 8.16667C1.8335 4.48467 4.81816 1.5 8.50016 1.5C12.1822 1.5 15.1668 4.48467 15.1668 8.16667C15.1668 11.8487 12.1822 14.8333 8.50016 14.8333Z" stroke="#050B20" stroke-linecap="round" stroke-linejoin="round"/>
<path d="M8.50016 10.8333C7.79292 10.8333 7.11464 10.5524 6.61454 10.0523M8.50016 10.8333C9.20741 10.8333 9.88568 10.5524 10.3858 10.0523M8.50016 10.8333V14.8333M6.61454 10.0523C6.11445 9.55219 5.8335 8.87391 5.8335 8.16667M6.61454 10.0523L3.78616 12.8807M5.8335 8.16667C5.8335 7.45942 6.11445 6.78115 6.61454 6.28105C7.11464 5.78095 7.79292 5.5 8.50016 5.5M5.8335 8.16667H1.8335M8.50016 5.5C9.20741 5.5 9.88568 5.78095 10.3858 6.28105M8.50016 5.5V1.5M10.3858 6.28105C10.8859 6.78115 11.1668 7.45942 11.1668 8.16667M10.3858 6.28105L13.2142 3.45267M11.1668 8.16667C11.1668 8.87391 10.8859 9.55219 10.3858 10.0523M11.1668 8.16667H15.1668M10.3858 10.0523L13.2142 12.8807M3.78616 3.45267L6.61483 6.28" stroke="#050B20" stroke-linecap="round" stroke-linejoin="round"/>
</g>
</svg>
