<svg width="96" height="96" viewBox="0 0 96 96" fill="none" xmlns="http://www.w3.org/2000/svg">
<path d="M76.5 5.51324C84.232 5.51324 90.5 11.7813 90.5 19.5132V76.5132C90.5 84.2452 84.232 90.5132 76.5 90.5132H19.5C11.768 90.5132 5.5 84.2452 5.5 76.5132V19.5132C5.5 11.7813 11.768 5.51324 19.5 5.51324H34.2685C39.8688 5.51324 44.9304 8.8508 47.1365 13.9984L48 16.0132L48.8635 13.9984C51.0696 8.8508 56.1312 5.51324 61.7315 5.51324H76.5Z" fill="#EEF1FB"/>
<path d="M34.2686 3.01324C39.8503 3.01328 44.9778 5.82646 48 10.3638C51.0222 5.82646 56.1497 3.01328 61.7314 3.01324H76.5C85.6127 3.01324 93 10.4005 93 19.5132V76.5132C93 85.6259 85.6127 93.0132 76.5 93.0132H19.5C10.3873 93.0132 3 85.6259 3 76.5132V19.5132C3 10.4005 10.3873 3.01324 19.5 3.01324H34.2686Z" stroke="#EEF1FB" stroke-opacity="0.17" stroke-width="5"/>
<path d="M33.7866 32.7251C32.5664 33.0084 31.2699 34.1087 30.6707 35.3398C29.8318 37.0938 26.204 45.962 26.095 46.5176C26.0079 46.9534 25.9861 49.6008 26.0079 55.1025C26.0405 62.9248 26.0405 63.0664 26.2693 63.5567C26.5962 64.243 27.13 64.8204 27.7728 65.1582L28.3284 65.4523H31.2154C34.0045 65.4523 34.1134 65.4414 34.5601 65.2017C35.2029 64.864 35.7694 64.2648 36.0744 63.6111C36.3032 63.11 36.3359 62.903 36.3359 61.6065V60.1685H50.8256V61.5303C50.8256 62.6415 50.8692 62.9902 51.0544 63.5022C51.3595 64.3193 52.0131 64.973 52.8411 65.278C53.4512 65.5068 53.6255 65.5177 56.2184 65.485C58.8004 65.4523 58.9638 65.4414 59.3996 65.2017C60.1187 64.8204 60.598 64.3411 60.9249 63.6765L61.2299 63.0555L61.2626 58.4798C61.2844 55.9632 61.2844 53.5119 61.2626 53.0434L61.2299 52.1719L59.9552 53.5555L58.6697 54.9282V57.5538H55.9352L55.0309 58.4036C53.7236 59.6346 52.7866 60.0159 51.3159 59.9288C50.1175 59.8525 49.0934 59.3187 48.1891 58.3164L47.5028 57.5538H28.5899L28.6552 46.6048L30.6271 41.9746C31.7057 39.4253 32.6862 37.1047 32.8061 36.8106C33.0893 36.0697 33.6667 35.5032 34.2986 35.3507C35.0394 35.1655 52.1003 35.1655 52.7213 35.3507C53.5819 35.6122 53.9088 36.1133 55.0091 38.8152C55.5647 40.1661 56.055 41.3645 56.0986 41.4843C56.1639 41.6586 56.2402 41.5279 56.4254 40.8851C56.6324 40.1661 57.0137 39.349 57.4713 38.6409C57.602 38.4339 57.5476 38.2378 56.9919 36.8433C56.0986 34.6099 55.6083 33.9235 54.4099 33.2263C53.3314 32.5944 53.4185 32.6053 43.4064 32.6162C38.2969 32.6271 34.0262 32.6707 33.7866 32.7251ZM33.7321 60.212C33.7539 60.2338 33.7539 60.7786 33.7212 61.4213C33.6776 62.4127 33.634 62.6088 33.4597 62.7396C33.2854 62.8594 32.7843 62.8921 31.1501 62.8921H29.0474L28.8295 62.6088C28.6334 62.3583 28.6008 62.1622 28.6008 61.247V60.1685H31.1392C32.5446 60.1685 33.7103 60.1903 33.7321 60.212ZM58.6697 61.247C58.6697 62.1622 58.637 62.3583 58.4409 62.6088L58.223 62.8921H56.055C53.3423 62.8921 53.4512 62.9575 53.4403 61.4213C53.4294 60.8221 53.4294 60.2992 53.4294 60.2447C53.4403 60.2012 54.6169 60.1685 56.055 60.1685H58.6697V61.247Z" fill="#050B20"/>
<path d="M62.254 36.9958C59.563 37.9109 57.7654 40.5692 57.9397 43.3909C57.9724 43.9029 58.0487 44.4476 58.1141 44.6002C58.2121 44.8725 58.1141 44.9924 56.36 46.8336C55.336 47.9121 53.2878 50.0039 51.8061 51.5073C49.1479 54.1874 49.1043 54.2418 48.9735 54.841C48.6031 56.5297 49.8778 58.0985 51.6318 58.0985C52.852 58.0985 53.0045 57.9787 57.0573 53.7625C59.051 51.6816 60.9684 49.6879 61.2953 49.3393L61.9054 48.6965L62.4392 48.849C63.2781 49.0887 64.8142 49.0343 65.762 48.7292C66.7643 48.4024 68.0281 47.5635 68.6055 46.8336C69.488 45.7223 70 44.306 70 42.9442C70 41.6804 69.695 40.9941 69.1393 40.9941C68.9105 40.9941 68.5075 41.3536 67.1674 42.7481L65.4788 44.4912L64.3893 44.1971C63.7901 44.0337 63.2563 43.8702 63.2018 43.8158C63.1147 43.7395 62.3738 41.5933 62.3738 41.419C62.3738 41.3754 63.1364 40.591 64.0516 39.6758C65.8819 37.8565 66.0889 37.5187 65.6531 37.1701C65.0539 36.6798 63.4197 36.5927 62.254 36.9958ZM52.3508 54.3617C52.7757 54.6558 52.8847 54.8519 52.8956 55.2986C52.8956 55.6146 52.8193 55.7889 52.5796 56.0394C52.1547 56.4643 51.61 56.4752 51.1525 56.0503C50.7167 55.6581 50.6404 55.2115 50.9346 54.743C51.2832 54.1874 51.8715 54.024 52.3508 54.3617Z" fill="#050B20"/>
<path d="M34.6254 43.5652C33.6885 44.0337 33.6231 45.3519 34.5056 45.8966C34.8542 46.1145 35.0285 46.1145 43.2866 46.1145C52.5579 46.1145 52.2528 46.1363 52.6777 45.4391C53.0917 44.7527 52.8411 43.9247 52.1003 43.5761C51.7517 43.4127 50.9455 43.3909 43.3411 43.3909C35.9437 43.3909 34.9305 43.4127 34.6254 43.5652Z" fill="#050B20"/>
<path d="M33.0675 50.6031C32.5337 50.9626 32.3158 51.5945 32.5337 52.161C32.8169 52.9127 33.1002 53.0326 34.7344 53.0652C35.9437 53.087 36.2378 53.0652 36.5538 52.9018C37.36 52.4878 37.5343 51.3984 36.8915 50.7556L36.5538 50.4179L34.9958 50.3852C33.5251 50.3525 33.427 50.3634 33.0675 50.6031Z" fill="#050B20"/>
</svg>
