<svg width="16" height="15" viewBox="0 0 16 15" fill="none" xmlns="http://www.w3.org/2000/svg">
<path d="M11.9369 1.10177C11.8217 1.16494 11.8217 1.16865 11.5616 1.9936L11.3609 2.62532L10.6029 2.6439C10.0826 2.65505 9.81506 2.67735 9.75932 2.71079C9.58467 2.8074 9.50663 3.1084 9.6144 3.26076C9.64413 3.30163 9.93026 3.53574 10.2461 3.77728C10.5657 4.02253 10.8258 4.23435 10.8258 4.25293C10.8258 4.27151 10.7329 4.60594 10.6177 4.99612C10.4839 5.45319 10.4208 5.73189 10.4356 5.79506C10.4468 5.84337 10.51 5.93627 10.5694 5.99944C10.6697 6.09606 10.6995 6.10721 10.8593 6.09234C11.0153 6.07748 11.0934 6.02917 11.5764 5.66129C11.8774 5.43089 12.1376 5.2451 12.1599 5.2451C12.1821 5.2451 12.4348 5.41975 12.721 5.63156C13.0034 5.84709 13.2709 6.04032 13.3118 6.0589C13.4047 6.11092 13.6351 6.11092 13.728 6.06261C13.8135 6.01431 13.9101 5.83594 13.9101 5.72817C13.9101 5.68358 13.8172 5.35286 13.7057 4.98869C13.5942 4.62452 13.5013 4.30123 13.5013 4.27151C13.5013 4.23806 13.7689 4.0151 14.0959 3.77356C14.7648 3.27562 14.8391 3.179 14.7685 2.93746C14.6904 2.68478 14.6273 2.6662 13.7837 2.6439L13.0368 2.62532L12.7879 1.93786C12.5909 1.39533 12.5129 1.22811 12.4237 1.14636C12.2973 1.03116 12.1004 1.01258 11.9369 1.10177Z" fill="#050B20"/>
<path d="M4.24851 2.73308C3.83603 2.84828 3.47187 3.11955 3.2712 3.46513C3.21918 3.55432 2.83643 4.43872 2.42024 5.43089L1.66589 7.23315V13.1044L1.75136 13.2605C1.87771 13.4983 2.04864 13.673 2.25674 13.7844L2.44625 13.8848H4.41573L4.60524 13.7844C4.8282 13.6692 5.01029 13.4723 5.11433 13.2382C5.17751 13.1007 5.19609 12.9669 5.20723 12.5842L5.2221 12.1011L7.49628 12.1122L9.76676 12.1271L9.78534 12.6325C9.80763 13.2233 9.8708 13.4017 10.1309 13.6247C10.4208 13.8736 10.5731 13.9034 11.5133 13.9034C12.2416 13.9034 12.3717 13.8959 12.5352 13.8328C12.8213 13.725 12.9997 13.5615 13.1372 13.2791L13.2598 13.0301V7.38179L13.1 6.99161C13.0108 6.77608 12.9216 6.58285 12.8993 6.55684C12.8808 6.53454 12.7247 6.41192 12.5537 6.28929L12.2453 6.06261L12.0744 6.23727C11.9555 6.35618 11.9072 6.4305 11.922 6.47509C11.9332 6.51225 12.0335 6.75379 12.145 7.01391L12.3494 7.48955V11.1907H2.53915V7.46726L3.2712 5.69845C4.07757 3.74383 4.09987 3.70296 4.44546 3.61377C4.56437 3.58405 5.2927 3.5729 6.84227 3.5729H9.06815L9.01613 3.37595C8.96782 3.19387 8.97153 2.88544 9.02727 2.74052C9.04957 2.68478 8.83404 2.68106 6.73451 2.68478C4.99914 2.68849 4.37485 2.69964 4.24851 2.73308ZM4.32283 12.4616C4.32283 12.7997 4.3154 12.848 4.24108 12.9261C4.16304 13.0115 4.14446 13.0115 3.43099 13.0115C2.86244 13.0115 2.68779 13.0004 2.62834 12.9595C2.56888 12.9149 2.55402 12.848 2.53915 12.5099C2.528 12.2906 2.528 12.1048 2.53544 12.0974C2.54287 12.09 2.95163 12.0825 3.43842 12.0825H4.32283V12.4616ZM12.3494 12.4913C12.3494 13.0301 12.3791 13.0115 11.517 13.0115C10.6512 13.0115 10.6809 13.0301 10.6772 12.5099C10.6735 12.3055 10.6735 12.1308 10.6735 12.1197C10.6772 12.1085 11.0525 12.1048 11.5133 12.1122L12.3494 12.1234V12.4913Z" fill="#050B20"/>
<path d="M4.62382 6.42306C4.37857 6.54569 4.2931 6.82439 4.43431 7.0585C4.57923 7.29632 4.48633 7.28889 7.50372 7.28889C9.95627 7.28889 10.2536 7.28146 10.365 7.22944C10.5137 7.15883 10.6029 7.01019 10.6029 6.83554C10.6029 6.72406 10.5843 6.70548 10.4171 6.62744C10.3167 6.58285 10.1867 6.5011 10.1235 6.45279L10.0157 6.35989H7.38481C5.00285 6.35989 4.73902 6.36732 4.62382 6.42306Z" fill="#050B20"/>
<path d="M3.98467 8.8013C3.6651 8.99825 3.70597 9.51105 4.05528 9.65598C4.16676 9.70429 4.27824 9.708 4.65727 9.68571C4.93597 9.67084 5.15893 9.64111 5.2221 9.60767C5.51194 9.45903 5.50451 8.94622 5.21467 8.79387C5.05488 8.71212 4.12216 8.71583 3.98467 8.8013Z" fill="#050B20"/>
</svg>
