<svg width="95" height="96" viewBox="0 0 95 96" fill="none" xmlns="http://www.w3.org/2000/svg">
<path d="M76 5.5C83.732 5.5 90 11.768 90 19.5V76.5C90 84.232 83.732 90.5 76 90.5H19C11.268 90.5 5 84.232 5 76.5V19.5C5 11.768 11.268 5.5 19 5.5H33.7685C39.3688 5.5 44.4304 8.83756 46.6365 13.9851L47.5 16L48.3635 13.9851C50.5696 8.83756 55.6312 5.5 61.2315 5.5H76Z" fill="#FF5354"/>
<path d="M33.7686 3C39.3503 3.00003 44.4778 5.81321 47.5 10.3506C50.5222 5.81321 55.6497 3.00003 61.2314 3H76C85.1127 3 92.5 10.3873 92.5 19.5V76.5C92.5 85.6127 85.1127 93 76 93H19C9.8873 93 2.5 85.6127 2.5 76.5V19.5C2.5 10.3873 9.8873 3 19 3H33.7686Z" stroke="#FF5354" stroke-opacity="0.17" stroke-width="5"/>
<path d="M42.5 46.6667L48 52.1667L62.6667 37.5" stroke="white" stroke-width="2.75" stroke-linecap="round" stroke-linejoin="round"/>
<path d="M62.6667 48.5006C62.6658 51.6166 61.6725 54.6513 59.8308 57.1648C57.9892 59.6783 55.3949 61.5399 52.4241 62.4798C49.4532 63.4197 46.2603 63.389 43.308 62.3922C40.3558 61.3953 37.7978 59.4842 36.0048 56.9358C34.2118 54.3873 33.277 51.3341 33.336 48.2187C33.395 45.1033 34.4446 42.0876 36.3328 39.6089C38.2209 37.1301 40.8494 35.3172 43.8372 34.4328C46.8251 33.5484 50.0169 33.6385 52.95 34.6901" stroke="white" stroke-width="2.75" stroke-linecap="round" stroke-linejoin="round"/>
</svg>
