<svg width="27" height="27" viewBox="0 0 27 27" fill="none" xmlns="http://www.w3.org/2000/svg">
<circle cx="13.5" cy="13.5" r="13.5" fill="#050B20"/>
<path d="M15.1826 15.9262C15.1832 15.9676 15.1952 15.9888 15.2185 15.99C15.2372 15.9886 15.255 15.9812 15.2692 15.9687L21.8143 11.6709C21.9248 11.5925 22.0573 11.5522 22.1922 11.5558H23.6307C23.8512 11.5558 24 11.7045 24 11.9277V14.707C24 15.0435 23.9265 15.2383 23.6325 15.4162L21.8878 16.4787C21.8703 16.4908 21.8501 16.4981 21.8291 16.5C21.8081 16.5 21.7871 16.4832 21.7871 16.4221V13.1788C21.7871 13.1407 21.7766 13.1159 21.7513 13.1159C21.7325 13.1173 21.7147 13.1247 21.7005 13.1372L16.9178 16.2813C16.8095 16.356 16.6812 16.3953 16.5503 16.3937H13.3793C13.157 16.3937 13.01 16.245 13.01 16.0201V12.0144C13.01 11.9852 12.9969 11.9578 12.9715 11.9578C12.9531 11.9593 12.9356 11.9668 12.9216 11.979L9.7655 13.8942C9.734 13.9154 9.72525 13.9305 9.72525 13.9455C9.72525 13.9579 9.73225 13.9712 9.75325 13.9942L12.0081 16.2742C12.0379 16.3043 12.0589 16.3273 12.0589 16.353C12.0589 16.3743 12.0247 16.3911 11.9854 16.3911H9.9475C9.78737 16.3911 9.664 16.3681 9.57738 16.2804L8.21062 14.8992C8.20535 14.893 8.19892 14.8879 8.19172 14.8843C8.18451 14.8806 8.17666 14.8785 8.16862 14.8779C8.15374 14.8786 8.13928 14.8832 8.12663 14.8912L5.84288 16.2813C5.73367 16.3555 5.60424 16.3933 5.47275 16.3893H3.37188C3.147 16.3911 3 16.2406 3 16.0183V13.2912C3 12.9548 3.0735 12.76 3.36925 12.5829L5.12625 11.5142C5.13983 11.5053 5.15558 11.5004 5.17175 11.5C5.19975 11.5 5.21375 11.5266 5.21375 11.5885V15.24C5.21375 15.2781 5.2225 15.2958 5.24963 15.2958C5.26852 15.293 5.2865 15.2857 5.30212 15.2746L11.2311 11.6629C11.346 11.5844 11.483 11.5459 11.6214 11.5531H14.8134C15.0339 11.5531 15.1826 11.7019 15.1826 11.925L15.1809 15.9254L15.1826 15.9262Z" fill="white"/>
</svg>
