<svg width="27" height="27" viewBox="0 0 27 27" fill="none" xmlns="http://www.w3.org/2000/svg">
<circle cx="13.5" cy="13.5" r="13.5" fill="#FF5354"/>
<path d="M18.9741 4.87207C18.8801 5.49928 18.4624 6.32847 17.9925 6.81748C17.6061 7.23207 16.8542 7.81675 16.6245 7.86991C16.5618 7.89117 16.3947 7.61477 16.2485 7.27459C15.9039 6.41351 15.8308 6.38162 15.8204 7.08324C15.8204 7.9018 15.6115 8.25261 14.5255 9.33693C14.0242 9.83657 13.596 10.3043 13.5647 10.3787C13.5125 10.5701 11.5075 8.49711 11.2464 7.98684C11.1107 7.69982 11.0689 7.44468 11.1002 7.04072C11.1629 6.30721 10.9749 6.43477 10.6512 7.32775C10.5259 7.67856 10.3901 7.95495 10.3588 7.95495C10.2335 7.95495 9.46069 7.39153 9.06387 7.00883C8.56261 6.53045 8.18667 5.89261 7.93604 5.10595L7.74807 4.5L7.72719 4.92522C7.65409 6.54108 8.1449 7.44468 9.55468 8.26324C9.84708 8.44396 10.2543 8.70973 10.4528 8.85855L10.8183 9.14558L10.505 9.0818C10.3379 9.04991 9.77398 8.97549 9.27272 8.91171C8.30154 8.79477 7.54966 8.58216 7.14239 8.30576C6.79778 8.07189 6.40095 7.34901 6.31741 6.78558C6.20254 5.97766 6.09811 5.97766 6.02501 6.77495C5.92058 7.78486 6.13988 8.45459 6.74556 9.0818C7.23637 9.57081 7.71674 9.76216 9.77398 10.2405C11.497 10.6445 12.0505 10.9847 11.8521 11.5056C11.8208 11.6013 11.6746 11.7076 11.5493 11.7395C11.1733 11.8351 10.1604 11.58 9.47114 11.2398C9.13697 11.0591 8.83412 10.9528 8.8028 10.9847C8.67748 11.1122 9.11608 12.2178 9.42936 12.5261C9.74265 12.845 9.88885 12.9301 10.4423 13.1108C10.6616 13.1746 10.6825 13.164 10.6407 12.9407C10.6094 12.8025 10.5467 12.6005 10.505 12.4942C10.4528 12.356 10.4736 12.3241 10.5781 12.3667C10.8391 12.473 11.1524 13.1746 11.3404 14.0676C11.5388 14.9818 11.6955 15.3858 11.9565 15.5984C12.0505 15.6834 12.1236 15.8429 12.1236 15.9598C12.1236 16.1618 12.0818 16.1405 11.7581 15.8216C11.4448 15.5133 11.3926 15.4921 11.33 15.6515C11.2882 15.7578 11.2882 16.2575 11.33 16.7571C11.3926 17.5757 11.3822 17.6501 11.2464 17.4694C11.1002 17.2674 11.0898 17.278 10.9122 17.682C10.6512 18.2985 10.6721 19.638 10.954 20.3928C11.1942 21.02 11.967 21.9342 12.5622 22.3063C13.1679 22.6784 14.066 22.5083 14.9223 21.8492C15.9979 21.0306 16.4469 19.4785 16.0292 18.0434C15.8308 17.3631 15.7159 17.2142 15.622 17.5119C15.4966 17.9158 15.3922 17.7458 15.4758 17.278C15.5175 17.0335 15.5593 16.5339 15.5697 16.1618V15.4921L15.1834 15.811C14.9745 15.9917 14.7865 16.1193 14.7656 16.098C14.7448 16.0874 14.8805 15.8003 15.0476 15.4814C15.2251 15.1519 15.4653 14.4822 15.5802 13.9931C15.8413 12.962 15.9666 12.6749 16.3529 12.3135L16.6245 12.0477L16.4678 12.3667C16.3112 12.6537 16.2485 13.0577 16.3425 13.0577C16.5305 13.0577 17.2197 12.6643 17.5539 12.356C17.9507 11.984 18.1804 11.4843 18.1804 10.9528C18.1804 10.7189 18.17 10.7189 17.4494 11.091C16.2903 11.6863 15.0476 11.7182 15.0476 11.1441C15.0476 10.7827 15.5906 10.5382 17.3763 10.0917C18.3371 9.85783 19.3605 9.53891 19.632 9.39009C20.4465 8.97549 21 8.12504 21 7.28522C21 6.86 20.7598 5.85009 20.718 6.09459C20.4987 7.30648 20.4361 7.46594 20.0915 7.85928C19.6111 8.39081 18.5251 8.75225 16.7184 8.96486L16.1441 9.02864L17.0317 8.48648C18.6399 7.50847 19.2665 6.66865 19.2456 5.50991C19.2456 5.19099 19.2038 4.80829 19.1412 4.67009C19.0576 4.42559 19.0472 4.44685 18.9741 4.87207Z" fill="#FCFCFC"/>
</svg>
