<svg width="21" height="20" viewBox="0 0 21 20" fill="none" xmlns="http://www.w3.org/2000/svg">
<path d="M8.71092 12.1941L3.54342 8.90582C3.30699 8.75526 3.11235 8.54751 2.97751 8.30178C2.84266 8.05605 2.77197 7.78028 2.77197 7.49998C2.77197 7.21969 2.84266 6.94392 2.97751 6.69819C3.11235 6.45246 3.30699 6.24471 3.54342 6.09415L8.71009 2.80582C9.24502 2.4653 9.86598 2.28442 10.5001 2.28442C11.1342 2.28442 11.7552 2.4653 12.2901 2.80582L17.4568 6.09415C17.6932 6.24471 17.8878 6.45246 18.0227 6.69819C18.1575 6.94392 18.2282 7.21969 18.2282 7.49998C18.2282 7.78028 18.1575 8.05605 18.0227 8.30178C17.8878 8.54751 17.6932 8.75526 17.4568 8.90582L12.2901 12.1941C11.7552 12.5347 11.1342 12.7155 10.5001 12.7155C9.86598 12.7155 9.24585 12.5347 8.71092 12.1941Z" stroke="white" stroke-width="1.25"/>
<path d="M15.7384 10L17.4576 11.0942C17.694 11.2447 17.8887 11.4525 18.0235 11.6982C18.1583 11.9439 18.229 12.2197 18.229 12.5C18.229 12.7803 18.1583 13.0561 18.0235 13.3018C17.8887 13.5475 17.694 13.7553 17.4576 13.9058L12.2901 17.1942C11.7552 17.5347 11.1342 17.7156 10.5001 17.7156C9.86598 17.7156 9.24502 17.5347 8.71009 17.1942L3.54342 13.9058C3.30699 13.7553 3.11235 13.5475 2.97751 13.3018C2.84266 13.0561 2.77197 12.7803 2.77197 12.5C2.77197 12.2197 2.84266 11.9439 2.97751 11.6982C3.11235 11.4525 3.30699 11.2447 3.54342 11.0942L5.26176 10" stroke="white" stroke-width="1.25"/>
</svg>
