<svg width="96" height="96" viewBox="0 0 96 96" fill="none" xmlns="http://www.w3.org/2000/svg">
<path d="M76.5 5.01324C84.232 5.01324 90.5 11.2813 90.5 19.0132V76.0132C90.5 83.7452 84.232 90.0132 76.5 90.0132H19.5C11.768 90.0132 5.5 83.7452 5.5 76.0132V19.0132C5.5 11.2813 11.768 5.01324 19.5 5.01324H34.2685C39.8688 5.01324 44.9304 8.3508 47.1365 13.4984L48 15.5132L48.8635 13.4984C51.0696 8.3508 56.1312 5.01324 61.7315 5.01324H76.5Z" fill="#FF5354"/>
<path d="M34.2686 2.51324C39.8503 2.51328 44.9778 5.32646 48 9.86383C51.0222 5.32646 56.1497 2.51328 61.7314 2.51324H76.5C85.6127 2.51324 93 9.90055 93 19.0132V76.0132C93 85.1259 85.6127 92.5132 76.5 92.5132H19.5C10.3873 92.5132 3 85.1259 3 76.0132V19.0132C3 9.90055 10.3873 2.51324 19.5 2.51324H34.2686Z" stroke="#FF5354" stroke-opacity="0.17" stroke-width="5"/>
<path d="M48.9998 66.3465C38.8743 66.3465 30.6665 58.1386 30.6665 48.0131C30.6665 37.8876 38.8743 29.6798 48.9998 29.6798C59.1253 29.6798 67.3332 37.8876 67.3332 48.0131C67.3332 58.1386 59.1253 66.3465 48.9998 66.3465Z" stroke="white" stroke-width="2.75" stroke-linecap="round" stroke-linejoin="round"/>
<path d="M57.25 52.5963C57.25 52.5963 54.5 56.263 49 56.263C43.5 56.263 40.75 52.5963 40.75 52.5963" stroke="white" stroke-width="2.75" stroke-linecap="round" stroke-linejoin="round"/>
<path d="M55.4165 42.5131C55.1734 42.5131 54.9402 42.4165 54.7683 42.2446C54.5964 42.0727 54.4998 41.8395 54.4998 41.5964C54.4998 41.3533 54.5964 41.1201 54.7683 40.9482C54.9402 40.7763 55.1734 40.6797 55.4165 40.6797C55.6596 40.6797 55.8928 40.7763 56.0647 40.9482C56.2366 41.1201 56.3332 41.3533 56.3332 41.5964C56.3332 41.8395 56.2366 42.0727 56.0647 42.2446C55.8928 42.4165 55.6596 42.5131 55.4165 42.5131ZM42.5832 42.5131C42.3401 42.5131 42.1069 42.4165 41.935 42.2446C41.7631 42.0727 41.6665 41.8395 41.6665 41.5964C41.6665 41.3533 41.7631 41.1201 41.935 40.9482C42.1069 40.7763 42.3401 40.6797 42.5832 40.6797C42.8263 40.6797 43.0594 40.7763 43.2314 40.9482C43.4033 41.1201 43.4998 41.3533 43.4998 41.5964C43.4998 41.8395 43.4033 42.0727 43.2314 42.2446C43.0594 42.4165 42.8263 42.5131 42.5832 42.5131Z" fill="white" stroke="white" stroke-width="2.75" stroke-linecap="round" stroke-linejoin="round"/>
</svg>
