<svg width="16" height="17" viewBox="0 0 16 17" fill="none" xmlns="http://www.w3.org/2000/svg">
<g opacity="0.5">
<path d="M8.00004 15.1666C4.31804 15.1666 1.33337 12.1819 1.33337 8.49992C1.33337 4.81792 4.31804 1.83325 8.00004 1.83325C11.682 1.83325 14.6667 4.81792 14.6667 8.49992C14.6667 12.1819 11.682 15.1666 8.00004 15.1666Z" stroke="#050B20" stroke-width="1.1" stroke-linecap="round" stroke-linejoin="round"/>
<path d="M8.00004 11.1666C7.2928 11.1666 6.61452 10.8856 6.11442 10.3855M8.00004 11.1666C8.70728 11.1666 9.38556 10.8856 9.88566 10.3855M8.00004 11.1666V15.1666M6.11442 10.3855C5.61433 9.88544 5.33337 9.20716 5.33337 8.49992M6.11442 10.3855L3.28604 13.2139M5.33337 8.49992C5.33337 7.79267 5.61433 7.1144 6.11442 6.6143C6.61452 6.1142 7.2928 5.83325 8.00004 5.83325M5.33337 8.49992H1.33337M8.00004 5.83325C8.70728 5.83325 9.38556 6.1142 9.88566 6.6143M8.00004 5.83325V1.83325M9.88566 6.6143C10.3858 7.1144 10.6667 7.79267 10.6667 8.49992M9.88566 6.6143L12.714 3.78592M10.6667 8.49992C10.6667 9.20716 10.3858 9.88544 9.88566 10.3855M10.6667 8.49992H14.6667M9.88566 10.3855L12.714 13.2139M3.28604 3.78592L6.11471 6.61325" stroke="#050B20" stroke-width="1.1" stroke-linecap="round" stroke-linejoin="round"/>
</g>
</svg>
