<svg width="21" height="20" viewBox="0 0 21 20" fill="none" xmlns="http://www.w3.org/2000/svg">
<g opacity="0.5">
<path d="M4.60016 2.83712C4.08435 2.95686 3.53631 3.422 3.28302 3.94241C2.9284 4.68387 1.39481 8.43265 1.34876 8.66753C1.31192 8.85174 1.30271 9.97085 1.31192 12.2966C1.32573 15.6032 1.32573 15.6631 1.42245 15.8703C1.56061 16.1605 1.78627 16.4046 2.05799 16.5473L2.29286 16.6717H3.51329C4.69227 16.6717 4.73832 16.6671 4.92714 16.5658C5.19886 16.423 5.43834 16.1697 5.56729 15.8934C5.664 15.6815 5.67782 15.594 5.67782 15.046V14.4381H11.803V15.0137C11.803 15.4835 11.8214 15.6309 11.8997 15.8473C12.0286 16.1927 12.305 16.469 12.655 16.598C12.9129 16.6947 12.9866 16.6993 14.0826 16.6855C15.1741 16.6717 15.2432 16.6671 15.4274 16.5658C15.7314 16.4046 15.934 16.2019 16.0722 15.921L16.2011 15.6585L16.2149 13.7242C16.2241 12.6604 16.2241 11.6242 16.2149 11.4262L16.2011 11.0577L15.6623 11.6426L15.1188 12.2229V13.3328H13.9629L13.5806 13.692C13.028 14.2124 12.6319 14.3736 12.0102 14.3368C11.5036 14.3045 11.0707 14.0788 10.6885 13.6552L10.3983 13.3328H2.40339L2.43102 8.70437L3.2646 6.74708C3.72053 5.66943 4.13501 4.68848 4.18567 4.56413C4.30541 4.25097 4.5495 4.01149 4.81661 3.94701C5.12978 3.86872 12.3418 3.86872 12.6043 3.94701C12.9681 4.05754 13.1063 4.26939 13.5714 5.41152C13.8063 5.98259 14.0136 6.48918 14.032 6.53984C14.0596 6.61353 14.0918 6.55826 14.1701 6.28655C14.2576 5.98259 14.4188 5.63719 14.6123 5.33784C14.6675 5.25034 14.6445 5.16744 14.4096 4.57795C14.032 3.63385 13.8247 3.34371 13.3181 3.04896C12.8622 2.78185 12.8991 2.78646 8.66671 2.79106C6.50678 2.79567 4.70148 2.81409 4.60016 2.83712ZM4.57713 14.4565C4.58634 14.4657 4.58634 14.696 4.57253 14.9677C4.5541 15.3868 4.53568 15.4697 4.462 15.5249C4.38831 15.5756 4.17646 15.5894 3.48566 15.5894H2.59682L2.50471 15.4697C2.42181 15.3638 2.408 15.2809 2.408 14.894V14.4381H3.48105C4.07514 14.4381 4.56792 14.4473 4.57713 14.4565ZM15.1188 14.894C15.1188 15.2809 15.105 15.3638 15.0221 15.4697L14.93 15.5894H14.0136C12.8668 15.5894 12.9129 15.617 12.9083 14.9677C12.9037 14.7144 12.9037 14.4933 12.9037 14.4703C12.9083 14.4519 13.4056 14.4381 14.0136 14.4381H15.1188V14.894Z" fill="#050B20"/>
<path d="M16.634 4.64243C15.4965 5.02928 14.7366 6.15299 14.8103 7.34578C14.8241 7.56224 14.8563 7.79251 14.884 7.85698C14.9254 7.97212 14.884 8.02277 14.1425 8.80108C13.7096 9.25702 12.8438 10.1412 12.2175 10.7768C11.0937 11.9097 11.0753 11.9327 11.0201 12.186C10.8635 12.8999 11.4023 13.563 12.1438 13.563C12.6596 13.563 12.724 13.5124 14.4372 11.7301C15.28 10.8505 16.0906 10.0077 16.2287 9.86032L16.4866 9.5886L16.7123 9.65308C17.0669 9.7544 17.7163 9.73137 18.1169 9.60242C18.5406 9.46426 19.0749 9.10964 19.319 8.80108C19.692 8.33134 19.9084 7.73264 19.9084 7.15696C19.9084 6.62274 19.7795 6.3326 19.5446 6.3326C19.4479 6.3326 19.2775 6.48458 18.711 7.07407L17.9972 7.81093L17.5367 7.68658C17.2834 7.6175 17.0577 7.54842 17.0347 7.52539C16.9978 7.49316 16.6847 6.5859 16.6847 6.51221C16.6847 6.49379 17.007 6.1622 17.3939 5.77535C18.1676 5.00625 18.2551 4.86348 18.0709 4.71611C17.8176 4.50887 17.1268 4.47203 16.634 4.64243ZM12.4477 11.9834C12.6273 12.1077 12.6734 12.1906 12.678 12.3795C12.678 12.513 12.6458 12.5867 12.5444 12.6926C12.3648 12.8722 12.1346 12.8768 11.9411 12.6972C11.7569 12.5314 11.7247 12.3426 11.849 12.1446C11.9964 11.9097 12.2451 11.8406 12.4477 11.9834Z" fill="#050B20"/>
<path d="M4.95477 7.41947C4.55871 7.6175 4.53108 8.17475 4.90412 8.40502C5.05149 8.49713 5.12517 8.49713 8.61605 8.49713C12.5352 8.49713 12.4063 8.50634 12.5859 8.2116C12.7609 7.92146 12.655 7.57145 12.3418 7.42408C12.1944 7.35499 11.8536 7.34578 8.63908 7.34578C5.51202 7.34578 5.08372 7.35499 4.95477 7.41947Z" fill="#050B20"/>
<path d="M4.2962 10.3945C4.07054 10.5465 3.97843 10.8136 4.07054 11.0531C4.19028 11.3709 4.31002 11.4215 5.00082 11.4354C5.51202 11.4446 5.63637 11.4354 5.76992 11.3663C6.11072 11.1913 6.18441 10.7307 5.91269 10.459L5.76992 10.3163L5.11135 10.3024C4.48963 10.2886 4.44818 10.2932 4.2962 10.3945Z" fill="#050B20"/>
</g>
</svg>
