<svg width="57" height="58" viewBox="0 0 57 58" fill="none" xmlns="http://www.w3.org/2000/svg">
<path d="M26.1249 21.8752H52.2499M4.74988 26.6252L11.4165 19.1274C12.3078 18.1244 13.4014 17.3216 14.6254 16.7718C15.8494 16.222 17.176 15.9378 18.5178 15.9377H18.9999M4.74988 46.8127H17.8124L27.3124 39.6877C27.3124 39.6877 29.2361 38.3886 32.0624 36.1252C37.9999 31.3752 32.0624 23.856 26.1249 27.8127C21.2894 31.0356 16.6249 33.7502 16.6249 33.7502" stroke="#050B20" stroke-width="3.5625" stroke-linecap="round" stroke-linejoin="round"/>
<path d="M18.9999 32.5627V17.1252C18.9999 15.8655 19.5003 14.6573 20.3911 13.7665C21.2819 12.8757 22.4901 12.3752 23.7499 12.3752H47.4999C48.7597 12.3752 49.9678 12.8757 50.8586 13.7665C51.7494 14.6573 52.2499 15.8655 52.2499 17.1252V31.3752C52.2499 32.635 51.7494 33.8432 50.8586 34.734C49.9678 35.6248 48.7597 36.1252 47.4999 36.1252H32.0624" stroke="#050B20" stroke-width="3.5625"/>
</svg>
