<svg width="24" height="25" viewBox="0 0 24 25" fill="none" xmlns="http://www.w3.org/2000/svg">
<g opacity="0.5">
<path d="M8 10.5001H16M7 14.5001H8M16 14.5001H17" stroke="#050B20" stroke-width="1.25" stroke-linecap="round" stroke-linejoin="round"/>
<path d="M3 18.5001V11.9101C3.00021 11.6395 3.05532 11.3718 3.162 11.1231L5.481 5.71312C5.63504 5.35325 5.8913 5.04649 6.21802 4.83087C6.54473 4.61525 6.92755 4.50025 7.319 4.50012H16.681C17.0723 4.50017 17.4551 4.61502 17.7818 4.83045C18.1085 5.04589 18.3648 5.35244 18.519 5.71212L20.839 11.1221C20.9456 11.3715 21.0004 11.6399 21 11.9111V18.5001M3 18.5001V20.9001C3 21.0593 3.06321 21.2119 3.17574 21.3244C3.28826 21.4369 3.44087 21.5001 3.6 21.5001H6.4C6.55913 21.5001 6.71174 21.4369 6.82426 21.3244C6.93679 21.2119 7 21.0593 7 20.9001V18.5001M3 18.5001H7M21 18.5001V20.9001C21 21.0593 20.9368 21.2119 20.8243 21.3244C20.7117 21.4369 20.5591 21.5001 20.4 21.5001H17.6C17.5212 21.5001 17.4432 21.4846 17.3704 21.4545C17.2976 21.4243 17.2315 21.3801 17.1757 21.3244C17.12 21.2687 17.0758 21.2025 17.0457 21.1297C17.0155 21.0569 17 20.9789 17 20.9001V18.5001M21 18.5001H17M7 18.5001H17" stroke="#050B20" stroke-width="1.25"/>
</g>
</svg>
