<svg width="96" height="96" viewBox="0 0 96 96" fill="none" xmlns="http://www.w3.org/2000/svg">
<path d="M76.5 5.51324C84.232 5.51324 90.5 11.7813 90.5 19.5132V76.5132C90.5 84.2452 84.232 90.5132 76.5 90.5132H19.5C11.768 90.5132 5.5 84.2452 5.5 76.5132V19.5132C5.5 11.7813 11.768 5.51324 19.5 5.51324H34.2685C39.8688 5.51324 44.9304 8.8508 47.1365 13.9984L48 16.0132L48.8635 13.9984C51.0696 8.8508 56.1312 5.51324 61.7315 5.51324H76.5Z" fill="#EEF1FB"/>
<path d="M34.2686 3.01324C39.8503 3.01328 44.9778 5.82646 48 10.3638C51.0222 5.82646 56.1497 3.01328 61.7314 3.01324H76.5C85.6127 3.01324 93 10.4005 93 19.5132V76.5132C93 85.6259 85.6127 93.0132 76.5 93.0132H19.5C10.3873 93.0132 3 85.6259 3 76.5132V19.5132C3 10.4005 10.3873 3.01324 19.5 3.01324H34.2686Z" stroke="#EEF1FB" stroke-opacity="0.17" stroke-width="5"/>
<path d="M45.0637 53.8404L33.6952 46.6061C33.1751 46.2748 32.7469 45.8178 32.4502 45.2772C32.1536 44.7366 31.998 44.1299 31.998 43.5132C31.998 42.8966 32.1536 42.2899 32.4502 41.7493C32.7469 41.2087 33.1751 40.7516 33.6952 40.4204L45.0619 33.1861C46.2387 32.4369 47.6049 32.039 48.9999 32.039C50.395 32.039 51.7611 32.4369 52.9379 33.1861L64.3046 40.4204C64.8247 40.7516 65.2529 41.2087 65.5496 41.7493C65.8462 42.2899 66.0018 42.8966 66.0018 43.5132C66.0018 44.1299 65.8462 44.7366 65.5496 45.2772C65.2529 45.8178 64.8247 46.2748 64.3046 46.6061L52.9379 53.8404C51.7611 54.5895 50.395 54.9875 48.9999 54.9875C47.6049 54.9875 46.2406 54.5895 45.0637 53.8404Z" stroke="#050B20" stroke-width="2.75"/>
<path d="M60.5242 49.0132L64.3064 51.4204C64.8266 51.7516 65.2548 52.2087 65.5514 52.7493C65.8481 53.2899 66.0036 53.8966 66.0036 54.5132C66.0036 55.1299 65.8481 55.7366 65.5514 56.2772C65.2548 56.8178 64.8266 57.2749 64.3064 57.6061L52.9379 64.8404C51.7611 65.5896 50.395 65.9875 48.9999 65.9875C47.6049 65.9875 46.2387 65.5896 45.0619 64.8404L33.6952 57.6061C33.1751 57.2749 32.7469 56.8178 32.4502 56.2772C32.1536 55.7366 31.998 55.1299 31.998 54.5132C31.998 53.8966 32.1536 53.2899 32.4502 52.7493C32.7469 52.2087 33.1751 51.7516 33.6952 51.4204L37.4756 49.0132" stroke="#050B20" stroke-width="2.75"/>
</svg>
