<svg width="16" height="17" viewBox="0 0 16 17" fill="none" xmlns="http://www.w3.org/2000/svg">
<g opacity="0.5" clip-path="url(#clip0_155_1720)">
<path d="M6.47157 2.9813L1.75757 7.6953C1.50761 7.94534 1.36719 8.28442 1.36719 8.63797C1.36719 8.99152 1.50761 9.3306 1.75757 9.58064L5.52824 13.352C5.65207 13.4759 5.79912 13.5743 5.96098 13.6414C6.12285 13.7085 6.29635 13.743 6.47157 13.743C6.64679 13.743 6.82029 13.7085 6.98216 13.6414C7.14402 13.5743 7.29107 13.4759 7.4149 13.352L12.1282 8.63797L6.47157 2.9813ZM6.47157 2.9813L5.5289 2.03864" stroke="#050B20" stroke-linecap="round" stroke-linejoin="round"/>
<path d="M13.3335 10.8333C13.3335 10.8333 15.3335 12.8286 15.3335 14.0913C15.3335 15.1946 14.4368 16.0913 13.3335 16.0913C12.2302 16.0913 11.3415 15.1946 11.3335 14.0913C11.3402 12.828 13.3335 10.8333 13.3335 10.8333Z" stroke="#050B20" stroke-miterlimit="1.5" stroke-linecap="round" stroke-linejoin="round"/>
</g>
<defs>
<clipPath id="clip0_155_1720">
<rect width="16" height="16" fill="white" transform="translate(0 0.833313)"/>
</clipPath>
</defs>
</svg>
