<svg width="45" height="46" viewBox="0 0 45 46" fill="none" xmlns="http://www.w3.org/2000/svg">
<circle cx="22.4882" cy="23" r="22.248" fill="white" fill-opacity="0.22"/>
<path d="M27.7676 11.3596C27.5491 11.5781 25.8375 11.7966 23.9438 11.8694C20.5934 11.9422 18.2263 12.6342 16.4418 13.9816C14.366 15.584 11.5254 18.8252 10.7607 20.5004C9.01264 24.2149 8.97622 24.1421 12.2174 25.9994C15.24 27.7839 17.1337 29.4591 18.7725 31.8626C19.3188 32.7002 19.865 33.465 19.9743 33.5742C20.0836 33.6835 20.5206 34.5211 20.994 35.4679C22.1229 37.7622 22.5599 37.6166 25.1456 34.1933C27.4763 31.0978 27.7676 27.0555 25.7647 24.5427C25.4005 24.0329 25.0728 23.3409 25.0728 23.0132C25.0728 22.4305 25.2184 22.4305 26.2745 22.7947C27.6584 23.2681 29.0787 24.4334 29.0787 25.089C29.0787 25.4167 29.6249 25.5624 30.6446 25.5624C31.8828 25.5624 32.4291 25.3075 33.5216 24.3242C34.7962 23.1224 35.0147 22.2848 34.2135 21.5565C34.1043 21.4472 33.7765 20.9738 33.5216 20.5004C33.2303 20.0269 32.684 19.0437 32.2834 18.3153C31.8828 17.6234 31.5186 16.6401 31.4458 16.1667C31.373 15.4383 30.244 13.836 29.3336 13.144C29.1515 13.0348 29.0787 12.5249 29.1515 12.0515C29.2608 11.1046 28.4232 10.7041 27.7676 11.3596Z" fill="white"/>
</svg>
