<svg width="24" height="25" viewBox="0 0 24 25" fill="none" xmlns="http://www.w3.org/2000/svg">
<g opacity="0.5">
<path d="M3.07666 19.7976C2.94159 19.7999 2.83047 19.8026 2.75244 19.8055C2.71368 19.8069 2.68203 19.8087 2.65967 19.8103C2.64898 19.8111 2.6392 19.8113 2.63135 19.8123C2.62753 19.8128 2.62179 19.814 2.6167 19.8152C2.61429 19.8158 2.61036 19.8165 2.60596 19.8181L2.57764 19.8367C2.56584 19.8486 2.56042 19.8615 2.55908 19.865C2.55706 19.8704 2.55591 19.8754 2.55518 19.8787C2.55365 19.8855 2.55294 19.893 2.55225 19.8992C2.55083 19.912 2.55005 19.9285 2.54932 19.9471C2.54782 19.9847 2.54698 20.0365 2.54736 20.0984C2.54814 20.2228 2.55279 20.3907 2.56201 20.5721C2.57418 20.8488 2.58614 21.0216 2.60889 21.1346C2.62041 21.1917 2.63617 21.2376 2.65771 21.2762C2.68006 21.316 2.70748 21.3445 2.73877 21.368L2.7417 21.3699C2.77825 21.395 2.82594 21.4116 2.88525 21.4236C2.94538 21.4357 3.02378 21.4444 3.12549 21.451C3.32931 21.4641 3.63755 21.4685 4.10498 21.4685C4.68924 21.4685 4.99597 21.4691 5.17139 21.451C5.25992 21.4418 5.3232 21.427 5.37451 21.4012C5.42688 21.3747 5.46105 21.3392 5.49365 21.3035L5.49268 21.3025C5.52482 21.2686 5.5541 21.2352 5.57666 21.1931C5.59963 21.1503 5.61531 21.1031 5.62549 21.0447C5.64519 20.9314 5.64795 20.7648 5.64795 20.489V19.7898H4.1167C3.71589 19.7898 3.34697 19.793 3.07666 19.7976ZM6.01514 14.4305C6.23576 14.4293 6.45674 14.437 6.63818 14.4529C6.72899 14.4609 6.80909 14.4704 6.87354 14.4822C6.93986 14.4944 6.98373 14.5077 7.00635 14.5193V14.5183C7.21289 14.6272 7.32663 14.8706 7.32959 15.1248C7.33244 15.3794 7.22339 15.6201 7.01807 15.7254H7.01709C7.00025 15.7342 6.96628 15.7462 6.91162 15.7586C6.85826 15.7706 6.79022 15.7818 6.71045 15.7928C6.63087 15.8036 6.5402 15.8142 6.44092 15.823L6.11865 15.8455C5.48989 15.8825 5.32551 15.8735 5.16162 15.8025L5.16064 15.8015C4.64228 15.5861 4.58176 14.8199 5.05518 14.5281C5.07137 14.518 5.10922 14.5051 5.17236 14.492C5.23293 14.4794 5.30963 14.4677 5.39795 14.4588C5.57475 14.4408 5.7943 14.4316 6.01514 14.4305ZM10.6118 10.5213H14.9136L15.0708 10.656L15.0737 10.659C15.1813 10.7412 15.3998 10.8776 15.5708 10.9539V10.9549C15.6396 10.987 15.6905 11.0119 15.729 11.034C15.7677 11.0561 15.7899 11.0729 15.8032 11.0877C15.8247 11.1116 15.8335 11.139 15.8335 11.2293C15.8335 11.4577 15.7323 11.6525 15.562 11.7664L15.4849 11.8094C15.4507 11.8253 15.396 11.8414 15.2642 11.8543C15.1325 11.8672 14.9305 11.8767 14.606 11.8836C13.9572 11.8973 12.8265 11.9002 10.8081 11.9002C8.32334 11.9002 7.12398 11.9037 6.51514 11.8582C6.20879 11.8352 6.06481 11.7997 5.98389 11.7547C5.94634 11.7337 5.92143 11.7104 5.89795 11.6795L5.81982 11.5574C5.63706 11.2541 5.70993 10.9018 5.97607 10.6961L6.10107 10.618C6.13736 10.6005 6.19043 10.5837 6.31494 10.5701C6.44015 10.5564 6.63206 10.5461 6.94287 10.5388C7.56407 10.5244 8.65158 10.5213 10.6118 10.5213ZM18.1401 1.85818C18.3842 1.72516 18.6732 1.75592 18.855 1.92166V1.92068C18.9173 1.97778 18.9801 2.07 19.0698 2.26443C19.1593 2.45848 19.272 2.7476 19.4341 3.19412L19.8442 4.32596L19.8608 4.37381L19.9126 4.37479L21.1421 4.40506C21.4892 4.41423 21.7544 4.42387 21.9595 4.43826C22.1651 4.4527 22.3053 4.47215 22.4048 4.50174C22.5021 4.53072 22.5557 4.56803 22.5933 4.61502C22.6131 4.63989 22.6302 4.6689 22.646 4.70486L22.6929 4.83572C22.7205 4.93062 22.7311 5.00257 22.7212 5.0701C22.7114 5.13681 22.6801 5.2077 22.6089 5.29666C22.4992 5.43369 22.3046 5.60196 21.981 5.85135L21.6128 6.12967C21.3429 6.32901 21.0972 6.52118 20.9185 6.67068C20.8292 6.74531 20.7553 6.80986 20.7036 6.86014C20.678 6.88506 20.6569 6.90818 20.6411 6.92752C20.6333 6.9371 20.6248 6.94715 20.6187 6.95779C20.614 6.96579 20.604 6.98536 20.604 7.00955C20.6041 7.0256 20.6088 7.04832 20.6128 7.06619C20.6176 7.08779 20.6247 7.11601 20.6333 7.1492C20.6507 7.21614 20.6759 7.30675 20.7065 7.41385C20.7679 7.62845 20.8521 7.91185 20.9438 8.2117C21.0354 8.51089 21.1193 8.7961 21.1802 9.01541C21.2107 9.12516 21.2355 9.21829 21.2524 9.28787C21.2609 9.32256 21.2668 9.35137 21.271 9.37283C21.2731 9.38343 21.275 9.39188 21.2759 9.39822C21.2768 9.40437 21.2768 9.40704 21.2769 9.40701C21.2768 9.47766 21.2434 9.58216 21.189 9.6824C21.134 9.78347 21.0669 9.8608 21.0151 9.89041C20.9547 9.92111 20.8377 9.94193 20.7095 9.94119C20.6125 9.9406 20.5225 9.92802 20.4585 9.90799L20.4038 9.88553L20.3979 9.8826C20.3883 9.87818 20.3543 9.85715 20.2944 9.81619C20.2372 9.77705 20.1618 9.72359 20.0737 9.65994C19.8978 9.53273 19.6719 9.36525 19.4399 9.18826L19.439 9.18729C19.2032 9.01278 18.9812 8.85308 18.813 8.73709C18.7291 8.67925 18.6578 8.63163 18.605 8.59842C18.5787 8.58189 18.5555 8.56808 18.5376 8.55838C18.5288 8.55361 18.5195 8.54918 18.5112 8.54568L18.4712 8.5369C18.4589 8.5369 18.4484 8.53939 18.4438 8.5408C18.4384 8.54252 18.4333 8.54484 18.4292 8.54666C18.4208 8.55037 18.4118 8.55527 18.4028 8.56033C18.3846 8.57059 18.3614 8.58479 18.3345 8.60233C18.2802 8.63772 18.2066 8.68869 18.1196 8.75076L17.4653 9.23709C17.0667 9.54067 16.8395 9.70941 16.6802 9.80545C16.526 9.89839 16.4402 9.9203 16.3237 9.93143C16.191 9.94378 16.1276 9.94339 16.0786 9.92752C16.0549 9.9198 16.0323 9.9075 16.0054 9.88748L15.9058 9.79959C15.8606 9.7513 15.8136 9.69148 15.7759 9.63455C15.7559 9.60444 15.7397 9.57733 15.728 9.55447L15.7065 9.49979C15.7058 9.49667 15.7038 9.48606 15.7046 9.46463C15.7054 9.44405 15.7087 9.41681 15.7134 9.38358C15.7227 9.31718 15.7392 9.22872 15.7642 9.11893C15.8141 8.89943 15.8955 8.59872 16.0054 8.22342L16.0044 8.22244C16.0992 7.90147 16.1856 7.60357 16.2476 7.38162C16.2786 7.27061 16.3034 7.1776 16.3208 7.11111C16.3295 7.07809 16.3366 7.05108 16.3413 7.03104C16.3437 7.02105 16.3457 7.01182 16.3472 7.00467C16.3481 7.00013 16.3501 6.98865 16.3501 6.9783C16.35 6.95897 16.3427 6.94475 16.3403 6.94022C16.337 6.93391 16.3334 6.92841 16.3306 6.92459C16.3247 6.9168 16.3172 6.90858 16.3101 6.90115C16.2954 6.88591 16.275 6.8665 16.2505 6.84451C16.2009 6.80012 16.1301 6.73968 16.0435 6.66873C15.8699 6.52664 15.6301 6.33862 15.3667 6.13651C15.1073 5.93815 14.8605 5.74248 14.6724 5.58865C14.5783 5.51174 14.4992 5.44531 14.4409 5.39432C14.4119 5.36886 14.388 5.3475 14.3706 5.33084L14.3442 5.30447L14.3003 5.21658C14.2679 5.12115 14.2673 4.99997 14.2993 4.87772C14.3418 4.71579 14.436 4.57327 14.5562 4.50662L14.5591 4.50467C14.5689 4.49898 14.6004 4.48775 14.6675 4.47635C14.7319 4.46541 14.8208 4.45615 14.9341 4.44705C15.1604 4.4289 15.4825 4.41422 15.9097 4.40506H15.9106L17.1577 4.37479L17.2114 4.37381L17.228 4.32303L17.5581 3.28299C17.7729 2.60168 17.8781 2.26489 17.9536 2.08475C17.991 1.99555 18.0189 1.95242 18.0435 1.92557C18.0673 1.89952 18.092 1.88456 18.1401 1.85818ZM18.8579 19.8582L18.7837 19.8572L17.4077 19.8387C17.0283 19.8325 16.6838 19.8315 16.4331 19.8338C16.3078 19.8349 16.2051 19.8366 16.1333 19.8396C16.0977 19.8411 16.0685 19.8434 16.0474 19.8455C16.0371 19.8465 16.0261 19.8475 16.0171 19.8494C16.013 19.8503 16.0066 19.8524 15.9995 19.8553C15.9959 19.8567 15.989 19.859 15.9819 19.864C15.9759 19.8684 15.961 19.8803 15.9536 19.9021L15.9497 19.9138V19.9265L15.9556 20.5701C15.957 20.7794 15.9555 20.9456 15.9751 21.0701C15.9956 21.1998 16.0422 21.3016 16.1519 21.367C16.2526 21.4268 16.3971 21.4493 16.5923 21.4597C16.6914 21.4651 16.8081 21.4677 16.9438 21.4685H17.8794C18.0149 21.4676 18.1311 21.4653 18.23 21.4597C18.4246 21.4488 18.569 21.4247 18.6694 21.3621C18.7782 21.2941 18.8231 21.1894 18.8423 21.0564C18.8609 20.9277 18.8579 20.7555 18.8579 20.5379V19.8582ZM18.8579 12.2898L18.8521 12.2762L18.5151 11.493C18.4236 11.2792 18.3363 11.073 18.27 10.9129C18.2026 10.7502 18.1596 10.6399 18.1519 10.614L18.1509 10.6121L18.1528 10.5916C18.1567 10.5782 18.1656 10.5574 18.1851 10.5271C18.2219 10.4698 18.2865 10.3944 18.3833 10.2976L18.3843 10.2967L18.6196 10.0555L19.0747 10.3904L19.0757 10.3914C19.2155 10.4917 19.3493 10.592 19.4517 10.6717C19.5028 10.7114 19.5457 10.7457 19.5776 10.7722C19.5936 10.7855 19.6072 10.7969 19.6167 10.8055C19.6254 10.8132 19.6294 10.8171 19.6304 10.8181L19.6313 10.8191C19.6312 10.819 19.6346 10.8238 19.6421 10.8367C19.649 10.8486 19.6573 10.8647 19.6675 10.8846C19.688 10.9246 19.7141 10.9787 19.7437 11.0428C19.8027 11.1708 19.8757 11.338 19.9487 11.5144L20.2065 12.1424V21.407L20.0122 21.8015C19.8214 22.1935 19.5837 22.438 19.2241 22.6072L19.062 22.6756C18.8091 22.7733 18.6118 22.7869 17.4067 22.7869C16.6311 22.7869 16.1893 22.7744 15.8823 22.7127C15.5834 22.6525 15.4125 22.546 15.1802 22.3465C14.9725 22.1685 14.8494 22.0133 14.771 21.7888C14.691 21.5597 14.6565 21.2533 14.6382 20.7674L14.6069 19.9353L14.605 19.864L14.5327 19.8631L10.7964 19.8387L7.05322 19.8201H6.97998L6.97803 19.8933L6.95361 20.6883C6.93983 21.1615 6.91905 21.3958 6.86865 21.5721L6.80713 21.7361C6.64256 22.1064 6.35441 22.4179 6.00342 22.5994H6.00244L5.70459 22.7566H2.50439L2.20654 22.5994C1.87891 22.4236 1.60822 22.1476 1.40674 21.7683L1.40576 21.7674L1.2749 21.5281V11.8982L2.51025 8.94608C2.85262 8.12991 3.18141 7.35823 3.43506 6.77225C3.5619 6.47921 3.66985 6.23277 3.75146 6.05057C3.83414 5.866 3.88788 5.75183 3.90674 5.71951C4.22631 5.16932 4.80864 4.73441 5.47021 4.54959L5.46924 4.54861C5.5127 4.53713 5.60858 4.52698 5.77979 4.51736C5.94859 4.50789 6.18475 4.50004 6.50439 4.49393C7.14349 4.48171 8.11366 4.4755 9.5415 4.47244C11.2698 4.46938 12.222 4.47001 12.7368 4.48221C12.9952 4.48834 13.1392 4.49714 13.2153 4.50955C13.2208 4.51044 13.2256 4.51163 13.23 4.51248C13.1908 4.64123 13.1693 4.8143 13.1665 4.98807C13.1634 5.18643 13.1821 5.39587 13.2241 5.55447L13.2856 5.78494H9.71924C8.44418 5.78494 7.50639 5.78888 6.86279 5.79959C6.54105 5.80495 6.29175 5.81242 6.11084 5.82108C5.93342 5.82957 5.81392 5.8399 5.75635 5.85428H5.75537C5.61349 5.8909 5.49157 5.92571 5.37451 6.01248C5.25795 6.09892 5.15187 6.23183 5.02686 6.45389C4.77782 6.89628 4.43435 7.7233 3.77197 9.32889L2.56787 12.24L2.56201 12.2537V18.4724H18.8579V12.2898Z" fill="#050B20" stroke="white" stroke-width="0.15"/>
</g>
</svg>
