<svg width="28" height="27" viewBox="0 0 28 27" fill="none" xmlns="http://www.w3.org/2000/svg">
<circle cx="13.6237" cy="13.5" r="13.5" fill="#FF5354"/>
<g clip-path="url(#clip0_119_77)">
<path d="M13.4569 18.635C7.93441 18.635 3.45691 16.3367 3.45691 13.4992C3.45691 10.6633 7.93441 8.36499 13.4569 8.36499C18.9802 8.36499 23.4569 10.6633 23.4569 13.4992C23.4569 16.3367 18.9802 18.635 13.4569 18.635ZM9.79191 9.47499C6.54108 10.1483 4.26774 11.6917 4.26774 13.4867C4.26774 14.4808 4.96608 15.3983 6.14108 16.1333C6.23858 16.1933 6.30274 16.205 6.35024 16.2025C6.43524 16.1975 6.48358 16.1442 6.51774 16.0808C6.54668 16.0271 6.57364 15.9723 6.59858 15.9167C6.98191 15.0133 8.33024 11.8892 10.1011 9.76999C10.1335 9.73211 10.1626 9.69139 10.1877 9.64832C10.2261 9.57832 10.2177 9.52249 10.1877 9.48832C10.1394 9.43416 10.0011 9.43416 9.79191 9.47499ZM11.5752 10.9167C10.5977 13.2908 12.4477 12.9967 12.9486 12.8858C13.7986 12.6975 14.6102 12.375 15.2602 12.115C17.1119 11.3742 18.0952 10.6317 18.4211 10.3458C18.4521 10.3194 18.4821 10.2919 18.5111 10.2633C18.5569 10.215 18.5919 10.1642 18.5919 10.0967C18.5919 10.0189 18.5261 9.95693 18.3944 9.91082L18.3411 9.88999C16.9261 9.43916 15.2377 9.17666 13.4227 9.17666C13.4086 9.17666 13.3736 9.17499 13.3252 9.17666C13.1086 9.18332 12.8669 9.23166 12.6694 9.33416C12.0211 9.67082 11.7394 10.52 11.5752 10.9167ZM20.3961 10.9192C20.3679 10.9734 20.3412 11.0284 20.3161 11.0842C19.9327 11.9858 18.5852 15.1092 16.8144 17.2283C16.7819 17.2665 16.7529 17.3075 16.7277 17.3508C16.6861 17.4208 16.6952 17.4783 16.7277 17.5117C16.7752 17.565 16.9136 17.5658 17.1227 17.525C20.3727 16.85 22.6461 15.3083 22.6461 13.5125C22.6461 12.5183 21.9494 11.6017 20.7736 10.8667C20.6769 10.8058 20.6119 10.7942 20.5652 10.7975C20.4794 10.8033 20.4319 10.8558 20.3961 10.9192ZM15.3386 16.0833C16.3161 13.7092 14.4652 14.005 13.9661 14.115C13.1144 14.3025 12.3027 14.6258 11.6536 14.885C9.80108 15.625 8.81858 16.37 8.49108 16.6542C8.45163 16.6892 8.42219 16.7169 8.40274 16.7375C8.35524 16.785 8.32191 16.8358 8.32191 16.9042C8.32191 16.9817 8.38858 17.0458 8.51858 17.09C8.52858 17.0942 8.56108 17.1083 8.57358 17.1117C9.98691 17.5617 11.6752 17.825 13.4902 17.825H13.5886C13.816 17.8199 14.0397 17.7659 14.2444 17.6667C14.8927 17.33 15.1752 16.4808 15.3386 16.0833Z" fill="white"/>
</g>
<defs>
<clipPath id="clip0_119_77">
<rect width="20" height="20" fill="white" transform="translate(3.45691 3.5)"/>
</clipPath>
</defs>
</svg>
