<svg width="25" height="24" viewBox="0 0 25 24" fill="none" xmlns="http://www.w3.org/2000/svg">
<g clip-path="url(#clip0_191_1264)">
<path d="M11.7102 1.67095C11.4096 1.8349 11.109 2.02618 11.0271 2.08083C10.9451 2.16281 10.8358 4.32153 10.7538 6.89013L10.6172 11.5628L6.7916 13.7762L2.96602 15.9896L2.88404 17.1372C2.80207 18.2029 2.85672 18.3122 3.75846 18.7221L4.68753 19.1866L8.54044 16.9459C10.6445 15.7436 12.5026 14.7326 12.6666 14.7326C12.8306 14.7326 14.6887 15.7436 16.8201 16.9459L20.673 19.1593L21.6021 18.7221C22.4765 18.3122 22.5311 18.2029 22.4492 17.1372L22.3672 15.9896L18.5416 13.7762L14.716 11.5901L14.5521 7.76455C14.4428 5.66048 14.3608 3.50176 14.3335 2.95525C14.3061 2.19013 14.1422 1.91688 13.623 1.67095C12.7486 1.26106 12.4207 1.26106 11.7102 1.67095Z" fill="#050B20" fill-opacity="0.5"/>
<path d="M6.92846 5.63311L6.90113 9.13079L4.03195 10.7703C2.41974 11.6721 1.08079 12.5465 0.998809 12.7104C0.862181 13.0657 2.31044 15.6343 2.63834 15.6343C2.77497 15.6343 4.57846 14.6506 6.68253 13.4756L10.4535 11.3168L10.4808 6.72614V2.16277H8.70462H6.92846V5.63311Z" fill="#050B20" fill-opacity="0.5"/>
<path d="M14.853 6.72614L14.8804 11.3168L18.6786 13.4756C20.7554 14.6506 22.5588 15.6343 22.6955 15.6343C23.0234 15.6343 24.4716 13.0657 24.335 12.7104C24.253 12.5465 22.9141 11.6721 21.3019 10.7703L18.4054 9.13079V5.63311V2.16277H16.6292H14.853V6.72614Z" fill="#050B20" fill-opacity="0.5"/>
<path d="M8.84111 17.3558C6.95565 18.4488 5.31611 19.5145 5.20681 19.7058C4.96088 20.0884 6.24518 22.657 6.65506 22.657C6.76437 22.657 8.1853 21.9192 9.77018 20.9901L12.6667 19.3233L15.5632 20.9901C17.1481 21.9192 18.569 22.657 18.6783 22.657C19.0062 22.657 20.3452 20.143 20.2086 19.7878C20.0719 19.4326 12.9399 15.2518 12.5301 15.3064C12.3661 15.3337 10.7266 16.2355 8.84111 17.3558Z" fill="#050B20" fill-opacity="0.5"/>
</g>
<defs>
<clipPath id="clip0_191_1264">
<rect width="23.5" height="23.5" fill="white" transform="translate(0.916992 0.25)"/>
</clipPath>
</defs>
</svg>
