<svg width="23" height="24" viewBox="0 0 23 24" fill="none" xmlns="http://www.w3.org/2000/svg">
<path d="M10.3486 0.122635C9.44874 0.3274 8.1836 0.906082 7.98759 1.19988C7.89849 1.34232 7.59557 1.52038 7.10555 1.70734C6.68681 1.85868 6.27698 2.04564 6.17897 2.11687C6.00078 2.24151 6.00078 2.25041 6.19679 2.63323C6.50862 3.27423 6.92736 3.78169 7.26592 3.92414C7.55994 4.03988 7.59557 4.03988 7.67576 3.90633C7.79158 3.69267 8.43306 3.41668 8.82508 3.41668C9.07454 3.41668 9.19927 3.479 9.37746 3.69267C9.85857 4.26245 9.59129 4.52063 8.49543 4.53843C7.41738 4.54734 7.18574 4.7432 7.57775 5.31298C8.12123 6.11423 8.48652 6.26558 9.02999 5.90947C9.37746 5.678 9.66256 5.6869 9.7873 5.91837C9.89421 6.11423 9.76057 6.37242 9.226 7.02232L9.00326 7.28941L6.63335 6.08752L4.26344 4.88564H3.03394C1.81334 4.88564 1.79553 4.88564 1.46588 5.13492C0.949129 5.53555 0.664027 6.02521 0.726393 6.41693C0.806578 6.91549 0.949129 7.00451 1.43915 6.88878C1.98262 6.77304 2.27664 6.88878 2.44592 7.28941C2.54392 7.53868 2.6241 7.601 2.82011 7.601C3.23886 7.601 4.52182 8.46458 4.39708 8.66044C4.37926 8.70495 4.12089 8.76727 3.8447 8.80289C2.91812 8.90972 1.64407 9.21241 1.1095 9.45279C0.61057 9.67536 0.574932 9.71988 0.28983 10.3075C-0.0576381 11.0286 -0.0843664 11.358 0.165098 11.7675C0.405653 12.1592 0.539295 12.1949 1.00259 11.9634C1.64407 11.6607 1.9559 11.6429 2.19645 11.9011C2.38355 12.0969 2.44592 12.1147 2.66865 12.0346C2.82011 11.9812 3.81797 11.9634 5.1722 11.9812L7.42629 12.0079L7.91631 12.2572C8.1836 12.3907 8.60234 12.6667 8.83399 12.8804L9.26164 13.2543L8.32615 14.8835C7.81831 15.7738 7.18574 16.9401 6.91846 17.4653L6.44625 18.4179L6.41062 19.5575C6.37498 20.8929 6.48189 20.7861 5.0742 21.0087C3.77342 21.2134 3.20322 21.3915 3.03394 21.6497C2.86466 21.8989 2.66865 22.9317 2.65974 23.5549V23.9733L3.39923 23.911C4.36145 23.8308 5.97405 23.8308 7.96977 23.9199L9.57347 23.9911L9.53783 22.9317C9.5111 22.1482 9.52892 21.8188 9.61802 21.6497C9.83184 21.2579 13.2887 17.4742 13.3956 17.5187C13.4491 17.5366 14.1797 18.0529 15.0171 18.6672C16.7634 19.9492 17.0663 20.1184 17.7078 20.2074C18.0909 20.2519 18.1978 20.3142 18.278 20.4834C18.4384 20.8484 18.2691 20.9819 17.4227 21.1511C16.4961 21.3381 16.3357 21.4093 16.1575 21.7654C16.0328 21.9969 15.721 23.8843 15.7923 23.9555C15.8012 23.9733 16.2556 23.9377 16.7901 23.8843C17.4851 23.8219 18.3225 23.8219 19.7035 23.9021L21.6547 24L21.7972 23.7952C21.8774 23.6795 22.1803 23.3323 22.4743 23.0296L23 22.4687L22.902 22.1215C22.7684 21.7031 21.7972 19.7177 21.227 18.7028C20.9954 18.3022 20.4341 17.403 19.9708 16.6997C19.5075 16.0053 19.1155 15.3732 19.0888 15.3019C19.0531 15.2129 19.356 14.839 19.9352 14.2425C20.9241 13.2187 21.129 12.8715 21.129 12.1414C21.129 11.4826 20.9508 10.9752 20.0064 8.98094C18.8749 6.58608 18.7413 6.27448 18.5631 5.6869C18.1889 4.37818 18.5809 3.23862 19.4006 3.23862C19.6144 3.23862 19.7659 3.4879 19.7659 3.84401C19.7659 4.1289 20.0153 4.91235 20.2559 5.3753C20.5588 5.96288 21.8596 7.15586 22.1892 7.15586C22.3318 7.15586 22.2516 6.74633 21.8061 5.02809C21.3428 3.23862 21.2181 2.90031 20.8885 2.5442C20.4341 2.03674 19.4006 1.76966 18.7502 1.99223C18.3404 2.12577 17.8593 2.5353 17.5741 2.98934C17.4583 3.1763 17.298 3.32765 17.2267 3.32765C16.995 3.32765 15.7655 2.04564 15.7032 1.74295C15.6675 1.5916 15.5784 1.41354 15.4982 1.34232C15.1597 1.04853 12.4512 0.176052 11.391 0.00689888C11.2217 -0.0198097 10.7495 0.0336056 10.3486 0.122635ZM9.83184 1.28C9.8853 1.36903 9.17254 1.72514 8.92308 1.72514C8.64689 1.72514 8.86071 1.41354 9.20818 1.31561C9.66256 1.17317 9.76057 1.17317 9.83184 1.28ZM18.9729 9.51511C20.0064 11.5004 20.0421 11.6696 19.5164 12.2216C19.0888 12.6667 17.9038 13.2543 17.5831 13.1742C17.4494 13.1386 16.9594 12.64 16.2912 11.8566C14.8479 10.1472 14.8479 9.97806 16.3001 9.4795C17.6543 9.02546 17.8058 8.89191 17.8058 8.17969C17.8058 7.44966 18.0374 7.71674 18.9729 9.51511Z" fill="#050B20" fill-opacity="0.5"/>
</svg>
