<svg width="20" height="24" viewBox="0 0 20 24" fill="none" xmlns="http://www.w3.org/2000/svg">
<path d="M17.1004 0.975424C16.9813 1.77686 16.4522 2.83637 15.857 3.46122C15.3675 3.99098 14.4152 4.73807 14.1242 4.80599C14.0448 4.83316 13.8331 4.47999 13.648 4.04531C13.2115 2.94504 13.1189 2.90429 13.1056 3.80081C13.1056 4.84674 12.8411 5.295 11.4654 6.68052C10.8305 7.31895 10.2882 7.91663 10.2485 8.01171C10.1823 8.25622 7.64265 5.60742 7.31196 4.95541C7.14 4.58866 7.08709 4.26265 7.12678 3.74647C7.20614 2.80921 6.96804 2.97221 6.55799 4.11323C6.39926 4.56149 6.2273 4.91466 6.18762 4.91466C6.02889 4.91466 5.05005 4.19473 4.5474 3.70572C3.91248 3.09446 3.43629 2.27945 3.11882 1.27427L2.88073 0.5L2.85427 1.04334C2.76168 3.10805 3.38338 4.26265 5.1691 5.30858C5.53947 5.53951 6.05534 5.87909 6.30667 6.06926L6.76963 6.43602L6.3728 6.35452C6.16116 6.31377 5.44688 6.21868 4.81195 6.13718C3.58179 5.98776 2.6294 5.71609 2.11353 5.36292C1.67702 5.06408 1.17437 4.1404 1.06855 3.42047C0.923049 2.38812 0.790774 2.38811 0.698181 3.40688C0.565905 4.69732 0.843684 5.55309 1.61088 6.35452C2.23258 6.97936 2.84105 7.22387 5.44688 7.83513C7.62942 8.3513 8.33048 8.78598 8.07916 9.45157C8.03948 9.57382 7.85429 9.70966 7.69556 9.75041C7.21937 9.87266 5.93629 9.54666 5.06328 9.11198C4.63999 8.88106 4.25639 8.74523 4.21671 8.78598C4.05798 8.94898 4.61354 10.3617 5.01037 10.7556C5.40719 11.1631 5.59238 11.2718 6.29344 11.5027C6.57122 11.5842 6.59767 11.5706 6.54476 11.2854C6.50508 11.1088 6.42571 10.8507 6.3728 10.7148C6.30667 10.5383 6.33312 10.4975 6.4654 10.5518C6.79609 10.6877 7.19291 11.5842 7.43101 12.7252C7.68233 13.8934 7.88075 14.4096 8.21144 14.6812C8.33048 14.7899 8.42308 14.9937 8.42308 15.1431C8.42308 15.4012 8.37017 15.374 7.96011 14.9665C7.56329 14.5726 7.49715 14.5454 7.41778 14.7492C7.36487 14.885 7.36487 15.5234 7.41778 16.1619C7.49715 17.2078 7.48392 17.3029 7.31196 17.072C7.12678 16.8139 7.11355 16.8275 6.88868 17.3436C6.55799 18.1315 6.58445 19.843 6.94159 20.8074C7.24582 21.6089 8.22466 22.7771 8.97863 23.2525C9.74583 23.7279 10.8834 23.5106 11.9681 22.6684C13.3305 21.6225 13.8993 19.6393 13.3702 17.8055C13.1189 16.9361 12.9734 16.746 12.8543 17.1263C12.6956 17.6425 12.5633 17.4251 12.6691 16.8275C12.722 16.515 12.7749 15.8766 12.7882 15.4012V14.5454L12.2988 14.9529C12.0342 15.1838 11.7961 15.3468 11.7696 15.3197C11.7432 15.3061 11.9152 14.9393 12.1268 14.5318C12.3517 14.1107 12.6559 13.255 12.8014 12.6301C13.1321 11.3125 13.2908 10.9458 13.7802 10.4839L14.1242 10.1443L13.9257 10.5518C13.7273 10.9186 13.648 11.4348 13.767 11.4348C14.0051 11.4348 14.8781 10.9322 15.3014 10.5383C15.8041 10.0628 16.0951 9.42441 16.0951 8.74523C16.0951 8.44639 16.0818 8.44639 15.1691 8.92181C13.7009 9.68249 12.1268 9.72324 12.1268 8.98973C12.1268 8.52789 12.8146 8.21547 15.0765 7.64496C16.2935 7.34612 17.5898 6.93861 17.9337 6.74844C18.9654 6.21868 19.6665 5.132 19.6665 4.0589C19.6665 3.51555 19.3623 2.22511 19.3094 2.53753C19.0316 4.08606 18.9522 4.28982 18.5157 4.79241C17.9072 5.47159 16.5316 5.93343 14.2432 6.2051L13.5157 6.2866L14.64 5.59384C16.6771 4.34415 17.4707 3.27105 17.4443 1.79044C17.4443 1.38293 17.3914 0.893925 17.312 0.717339C17.2062 0.404917 17.1929 0.432081 17.1004 0.975424Z" fill="#050B20" fill-opacity="0.5"/>
</svg>
