<svg width="16" height="12" viewBox="0 0 16 12" fill="none" xmlns="http://www.w3.org/2000/svg">
<path d="M3.27102 0.644956C2.86663 0.738833 2.43696 1.10351 2.23838 1.5115C1.96036 2.09281 0.758025 5.03186 0.721919 5.216C0.693034 5.36042 0.685813 6.2378 0.693034 8.06117C0.703866 10.6536 0.703866 10.7005 0.779689 10.863C0.888008 11.0905 1.06493 11.2818 1.27795 11.3938L1.4621 11.4913H2.41891C3.34323 11.4913 3.37933 11.4876 3.52737 11.4082C3.7404 11.2963 3.92815 11.0977 4.02925 10.8811C4.10507 10.715 4.1159 10.6464 4.1159 10.2167V9.7401H8.91802V10.1914C8.91802 10.5597 8.93246 10.6753 8.99385 10.845C9.09494 11.1157 9.31158 11.3324 9.58599 11.4335C9.78818 11.5093 9.84595 11.5129 10.7053 11.5021C11.561 11.4913 11.6152 11.4876 11.7596 11.4082C11.9979 11.2818 12.1567 11.123 12.2651 10.9027L12.3662 10.6969L12.377 9.18046C12.3842 8.34641 12.3842 7.53402 12.377 7.37876L12.3662 7.08991L11.9437 7.54846L11.5177 8.0034V8.87356H10.6114L10.3117 9.15518C9.87845 9.56318 9.56793 9.68956 9.0805 9.66067C8.68333 9.6354 8.34393 9.45848 8.04425 9.1263L7.81678 8.87356H1.54875L1.57041 5.24488L2.22394 3.71037C2.58139 2.86549 2.90634 2.09643 2.94606 1.99894C3.03994 1.75342 3.2313 1.56566 3.44071 1.51512C3.68624 1.45373 9.34046 1.45373 9.54627 1.51512C9.83151 1.60177 9.93983 1.76786 10.3045 2.66329C10.4886 3.11101 10.6511 3.50818 10.6656 3.54789C10.6872 3.60566 10.7125 3.56234 10.7739 3.34931C10.8425 3.11101 10.9689 2.84021 11.1205 2.60552C11.1638 2.53692 11.1458 2.47193 10.9616 2.00977C10.6656 1.26959 10.5031 1.04212 10.1059 0.811045C9.74846 0.601629 9.77735 0.60524 6.45919 0.60885C4.76581 0.612461 3.35045 0.626903 3.27102 0.644956ZM3.25296 9.75455C3.26018 9.76177 3.26018 9.9423 3.24935 10.1553C3.23491 10.4839 3.22047 10.5489 3.1627 10.5922C3.10493 10.6319 2.93884 10.6428 2.39725 10.6428H1.7004L1.62818 10.5489C1.56319 10.4658 1.55236 10.4008 1.55236 10.0976V9.7401H2.39364C2.85941 9.7401 3.24574 9.74733 3.25296 9.75455ZM11.5177 10.0976C11.5177 10.4008 11.5068 10.4658 11.4418 10.5489L11.3696 10.6428H10.6511C9.75208 10.6428 9.78818 10.6644 9.78457 10.1553C9.78096 9.95674 9.78096 9.78343 9.78096 9.76538C9.78457 9.75094 10.1745 9.7401 10.6511 9.7401H11.5177V10.0976Z" fill="white"/>
<path d="M12.7056 2.06032C11.8137 2.36361 11.218 3.2446 11.2758 4.17975C11.2866 4.34945 11.3119 4.52998 11.3335 4.58053C11.366 4.6708 11.3335 4.71051 10.7522 5.32071C10.4128 5.67816 9.73402 6.3714 9.24298 6.86966C8.36199 7.75787 8.34754 7.77593 8.30422 7.97451C8.18145 8.53416 8.6039 9.05409 9.18521 9.05409C9.58959 9.05409 9.64014 9.01437 10.9833 7.61706C11.644 6.92743 12.2795 6.26669 12.3878 6.15115L12.59 5.93812L12.7669 5.98867C13.045 6.06811 13.5541 6.05005 13.8682 5.94896C14.2004 5.84064 14.6192 5.56262 14.8105 5.32071C15.103 4.95242 15.2727 4.48304 15.2727 4.03172C15.2727 3.61288 15.1716 3.38542 14.9875 3.38542C14.9116 3.38542 14.7781 3.50457 14.3339 3.96673L13.7743 4.54442L13.4132 4.44694C13.2147 4.39278 13.0377 4.33862 13.0197 4.32057C12.9908 4.29529 12.7453 3.584 12.7453 3.52623C12.7453 3.51179 12.998 3.25182 13.3013 2.94853C13.9079 2.34556 13.9765 2.23363 13.8321 2.11809C13.6335 1.95561 13.0919 1.92673 12.7056 2.06032ZM9.42351 7.81565C9.56432 7.91313 9.60043 7.97812 9.60404 8.12616C9.60404 8.23087 9.57876 8.28864 9.49933 8.37168C9.35852 8.51249 9.17799 8.51611 9.02634 8.37529C8.88191 8.24531 8.85664 8.09727 8.95413 7.94202C9.06967 7.75788 9.26464 7.70372 9.42351 7.81565Z" fill="white"/>
<path d="M3.54904 4.23752C3.23852 4.39278 3.21686 4.82966 3.50932 5.01019C3.62486 5.08241 3.68263 5.08241 6.41948 5.08241C9.49211 5.08241 9.39101 5.08963 9.53183 4.85855C9.66903 4.63108 9.58599 4.35667 9.34047 4.24113C9.22493 4.18697 8.95774 4.17975 6.43753 4.17975C3.98592 4.17975 3.65013 4.18697 3.54904 4.23752Z" fill="white"/>
<path d="M3.03271 6.56998C2.85579 6.68913 2.78358 6.89855 2.85579 7.0863C2.94967 7.33543 3.04354 7.37515 3.58514 7.38598C3.98592 7.3932 4.0834 7.38598 4.18811 7.33182C4.4553 7.19462 4.51307 6.83356 4.30004 6.62053L4.18811 6.5086L3.67179 6.49777C3.18436 6.48694 3.15186 6.49055 3.03271 6.56998Z" fill="white"/>
</svg>
