<svg width="16" height="12" viewBox="0 0 16 12" fill="none" xmlns="http://www.w3.org/2000/svg">
<path d="M3.12551 0.644956C2.72112 0.738833 2.29145 1.10351 2.09287 1.5115C1.81485 2.09281 0.612518 5.03186 0.576411 5.216C0.547526 5.36042 0.540305 6.2378 0.547526 8.06117C0.558358 10.6536 0.558358 10.7005 0.634181 10.863C0.7425 11.0905 0.91942 11.2818 1.13245 11.3938L1.31659 11.4913H2.2734C3.19772 11.4913 3.23383 11.4876 3.38186 11.4082C3.59489 11.2963 3.78264 11.0977 3.88374 10.8811C3.95956 10.715 3.97039 10.6464 3.97039 10.2167V9.7401H8.77251V10.1914C8.77251 10.5597 8.78696 10.6753 8.84834 10.845C8.94944 11.1157 9.16607 11.3324 9.44048 11.4335C9.64267 11.5093 9.70044 11.5129 10.5598 11.5021C11.4155 11.4913 11.4696 11.4876 11.6141 11.4082C11.8524 11.2818 12.0112 11.123 12.1196 10.9027L12.2207 10.6969L12.2315 9.18046C12.2387 8.34641 12.2387 7.53402 12.2315 7.37876L12.2207 7.08991L11.7982 7.54846L11.3722 8.0034V8.87356H10.4659L10.1662 9.15518C9.73294 9.56318 9.42243 9.68956 8.93499 9.66067C8.53782 9.6354 8.19843 9.45848 7.89874 9.1263L7.67128 8.87356H1.40324L1.42491 5.24488L2.07843 3.71037C2.43588 2.86549 2.76084 2.09643 2.80055 1.99894C2.89443 1.75342 3.08579 1.56566 3.29521 1.51512C3.54073 1.45373 9.19496 1.45373 9.40076 1.51512C9.686 1.60177 9.79432 1.76786 10.159 2.66329C10.3431 3.11101 10.5056 3.50818 10.5201 3.54789C10.5417 3.60566 10.567 3.56234 10.6284 3.34931C10.697 3.11101 10.8233 2.84021 10.975 2.60552C11.0183 2.53692 11.0003 2.47193 10.8161 2.00977C10.5201 1.26959 10.3576 1.04212 9.96041 0.811045C9.60296 0.601629 9.63184 0.60524 6.31368 0.60885C4.6203 0.612461 3.20494 0.626903 3.12551 0.644956ZM3.10745 9.75455C3.11468 9.76177 3.11468 9.9423 3.10384 10.1553C3.0894 10.4839 3.07496 10.5489 3.01719 10.5922C2.95942 10.6319 2.79333 10.6428 2.25174 10.6428H1.55489L1.48268 10.5489C1.41769 10.4658 1.40685 10.4008 1.40685 10.0976V9.7401H2.24813C2.7139 9.7401 3.10023 9.74733 3.10745 9.75455ZM11.3722 10.0976C11.3722 10.4008 11.3613 10.4658 11.2963 10.5489L11.2241 10.6428H10.5056C9.60657 10.6428 9.64267 10.6644 9.63906 10.1553C9.63545 9.95674 9.63545 9.78343 9.63545 9.76538C9.63906 9.75094 10.029 9.7401 10.5056 9.7401H11.3722V10.0976Z" fill="white"/>
<path d="M12.5601 2.06032C11.6682 2.36361 11.0725 3.2446 11.1302 4.17975C11.1411 4.34945 11.1664 4.52998 11.188 4.58053C11.2205 4.6708 11.188 4.71051 10.6067 5.32071C10.2673 5.67816 9.58851 6.3714 9.09747 6.86966C8.21648 7.75787 8.20203 7.77593 8.15871 7.97451C8.03595 8.53416 8.45839 9.05409 9.0397 9.05409C9.44409 9.05409 9.49464 9.01437 10.8378 7.61706C11.4985 6.92743 12.134 6.26669 12.2423 6.15115L12.4445 5.93812L12.6214 5.98867C12.8994 6.06811 13.4085 6.05005 13.7227 5.94896C14.0548 5.84064 14.4737 5.56262 14.665 5.32071C14.9575 4.95242 15.1272 4.48304 15.1272 4.03172C15.1272 3.61288 15.0261 3.38542 14.842 3.38542C14.7661 3.38542 14.6325 3.50457 14.1884 3.96673L13.6288 4.54442L13.2677 4.44694C13.0691 4.39278 12.8922 4.33862 12.8742 4.32057C12.8453 4.29529 12.5998 3.584 12.5998 3.52623C12.5998 3.51179 12.8525 3.25182 13.1558 2.94853C13.7624 2.34556 13.831 2.23363 13.6866 2.11809C13.488 1.95561 12.9464 1.92673 12.5601 2.06032ZM9.278 7.81565C9.41881 7.91313 9.45492 7.97812 9.45853 8.12616C9.45853 8.23087 9.43326 8.28864 9.35382 8.37168C9.21301 8.51249 9.03248 8.51611 8.88083 8.37529C8.73641 8.24531 8.71113 8.09727 8.80862 7.94202C8.92416 7.75788 9.11913 7.70372 9.278 7.81565Z" fill="white"/>
<path d="M3.40353 4.23752C3.09301 4.39278 3.07135 4.82966 3.36381 5.01019C3.47935 5.08241 3.53712 5.08241 6.27397 5.08241C9.3466 5.08241 9.24551 5.08963 9.38632 4.85855C9.52352 4.63108 9.44048 4.35667 9.19496 4.24113C9.07942 4.18697 8.81223 4.17975 6.29202 4.17975C3.84041 4.17975 3.50462 4.18697 3.40353 4.23752Z" fill="white"/>
<path d="M2.88721 6.56998C2.71028 6.68913 2.63807 6.89855 2.71028 7.0863C2.80416 7.33543 2.89804 7.37515 3.43963 7.38598C3.84041 7.3932 3.9379 7.38598 4.0426 7.33182C4.30979 7.19462 4.36756 6.83356 4.15453 6.62053L4.0426 6.5086L3.52628 6.49777C3.03885 6.48694 3.00636 6.49055 2.88721 6.56998Z" fill="white"/>
</svg>
