<svg width="25" height="26" viewBox="0 0 25 26" fill="none" xmlns="http://www.w3.org/2000/svg">
<path d="M17.7218 0.810366C17.5129 1.0207 15.8765 1.23104 14.0661 1.30115C10.863 1.37126 8.59995 2.03733 6.89396 3.33441C4.90944 4.87687 2.19379 7.99687 1.46265 9.60945C-0.208525 13.1852 -0.243341 13.1151 2.85529 14.9029C5.74503 16.6207 7.55547 18.2333 9.12219 20.547C9.64443 21.3533 10.1667 22.0894 10.2711 22.1946C10.3756 22.2998 10.7934 23.1061 11.246 24.0175C12.3253 26.2261 12.7431 26.0858 15.215 22.7906C17.4432 19.8108 17.7218 15.9196 15.8069 13.5007C15.4587 13.0099 15.1454 12.3438 15.1454 12.0283C15.1454 11.4674 15.2846 11.4674 16.2943 11.818C17.6173 12.2737 18.9751 13.3955 18.9751 14.0265C18.9751 14.342 19.4974 14.4823 20.4722 14.4823C21.656 14.4823 22.1782 14.2369 23.2227 13.2903C24.4413 12.1335 24.6502 11.3272 23.8842 10.6261C23.7798 10.5209 23.4664 10.0652 23.2227 9.60945C22.9442 9.15372 22.4219 8.20721 22.039 7.50608C21.656 6.84002 21.3078 5.8935 21.2382 5.43777C21.1686 4.73665 20.0893 3.19418 19.2189 2.52812C19.0448 2.42295 18.9751 1.93216 19.0448 1.47643C19.1492 0.564972 18.3485 0.179356 17.7218 0.810366Z" fill="#050B20" fill-opacity="0.5"/>
</svg>
