<svg width="16" height="19" viewBox="0 0 16 19" fill="none" xmlns="http://www.w3.org/2000/svg">
<path d="M1 17.5V16.5C1 14.6435 1.7375 12.863 3.05025 11.5503C4.36301 10.2375 6.14348 9.5 8 9.5M8 9.5C9.85651 9.5 11.637 10.2375 12.9497 11.5503C14.2625 12.863 15 14.6435 15 16.5V17.5M8 9.5C9.06087 9.5 10.0783 9.07857 10.8284 8.32843C11.5786 7.57828 12 6.56087 12 5.5C12 4.43913 11.5786 3.42172 10.8284 2.67157C10.0783 1.92143 9.06087 1.5 8 1.5C6.93913 1.5 5.92172 1.92143 5.17157 2.67157C4.42143 3.42172 4 4.43913 4 5.5C4 6.56087 4.42143 7.57828 5.17157 8.32843C5.92172 9.07857 6.93913 9.5 8 9.5Z" stroke="white" stroke-width="1.25" stroke-linecap="round" stroke-linejoin="round"/>
</svg>
