<svg width="23" height="24" viewBox="0 0 23 24" fill="none" xmlns="http://www.w3.org/2000/svg">
<path d="M9.85581 0.567318C4.76825 1.39244 0.904127 5.20256 0.104653 10.2018C-0.101272 11.4638 0.0077472 13.7329 0.334805 14.9584C1.44922 19.169 4.94995 22.4937 9.17747 23.3431C10.5463 23.6101 13.3686 23.5251 14.5194 23.1732C17.8627 22.154 20.3095 20.1397 21.7995 17.179C23.0956 14.5944 23.3621 11.4031 22.502 8.60013C21.8116 6.33104 20.2974 4.1833 18.4078 2.77573C17.366 1.99915 15.5733 1.13762 14.3377 0.822134C13.2596 0.543049 10.8612 0.409573 9.85581 0.567318ZM13.1143 2.53305C13.1627 2.56945 13.0295 3.01842 12.8236 3.52805C12.1089 5.31177 11.8182 6.69507 11.8182 8.22397C11.806 9.76501 11.9635 10.4445 12.5813 11.5973C12.9689 12.3374 13.6715 13.1504 14.3983 13.7329L14.8222 14.0605L14.0712 13.6965C13.1506 13.2354 12.0241 12.9563 11.1277 12.9563C10.3282 12.9563 8.98366 13.2354 8.4749 13.5023C7.90558 13.7935 8.02671 13.6358 8.70505 13.199C11.4548 11.4274 12.3269 7.7022 10.9339 3.69793C10.7643 3.21256 10.5947 2.7272 10.5584 2.60586C10.4978 2.38744 10.5705 2.37531 11.7697 2.42384C12.4723 2.43598 13.0779 2.49665 13.1143 2.53305ZM9.67411 2.7272C9.67411 2.84854 9.58932 3.44311 9.49241 4.06195C8.99577 7.14403 7.63909 9.83781 5.41025 12.1676C4.33217 13.3082 2.95126 14.4245 2.45462 14.5823C2.21236 14.6551 2.17602 14.5944 2.03066 13.8421C1.94587 13.3931 1.87319 12.4952 1.8853 11.8521C1.93375 7.7022 4.62289 4.11049 8.64449 2.81214C9.68622 2.47238 9.67411 2.47238 9.67411 2.7272ZM15.8519 3.43098C16.8209 3.91634 17.4266 4.35317 18.2624 5.19043C20.3459 7.2411 21.424 10.311 21.0606 13.1383C20.9273 14.1818 20.6245 15.2618 20.4549 15.2618C20.2853 15.2618 19.1346 14.3032 18.3593 13.5145C16.1668 11.2939 14.6527 8.27251 14.0954 5.02055C13.9985 4.42598 13.9137 3.64939 13.9137 3.2975V2.65439L14.5557 2.87281C14.907 2.99415 15.4885 3.24897 15.8519 3.43098ZM6.70637 14.4488C5.74942 15.1526 4.91361 15.9292 4.32006 16.6451C3.96878 17.0698 3.62961 17.4095 3.55693 17.3974C3.33889 17.3367 2.45462 15.5287 2.58787 15.3953C2.66055 15.3346 3.26621 15.1647 3.95666 15.0191C4.635 14.8856 5.55561 14.6429 6.01591 14.4852C7.04554 14.1212 7.15456 14.109 6.70637 14.4488ZM17.366 15.2739C17.9596 15.4681 18.8317 15.6986 19.3284 15.7835C19.8129 15.8564 20.2126 15.9777 20.2126 16.0505C20.2126 16.3053 18.9286 18.2711 18.8317 18.1618C18.8075 18.1376 18.4562 17.7007 18.0686 17.2032C17.1964 16.1112 16.6029 15.4923 15.7913 14.8007L15.1856 14.2789L15.7428 14.5944C16.0457 14.7643 16.7846 15.0676 17.366 15.2739ZM13.3929 16.7664C14.9676 17.0819 16.8209 17.7493 17.8748 18.3681C18.4078 18.6715 18.4078 18.6836 18.1897 18.9263C17.3781 19.8364 15.5006 20.9163 13.9501 21.3531C12.6176 21.7414 10.3888 21.7293 9.00788 21.341C7.55429 20.9284 6.06437 20.0912 4.93783 19.0476C4.41697 18.5501 3.98089 18.1012 3.98089 18.0526C3.98089 17.9313 5.49504 17.3246 6.52467 17.0334C8.45067 16.4752 11.3457 16.366 13.3929 16.7664Z" fill="#050B20" fill-opacity="0.5"/>
</svg>
