<svg width="25" height="23" viewBox="0 0 25 23" fill="none" xmlns="http://www.w3.org/2000/svg">
<path d="M8.51714 7.10868L11.5481 1.00468C11.6364 0.828029 11.7721 0.67945 11.94 0.575603C12.108 0.471756 12.3015 0.416748 12.499 0.416748C12.6964 0.416748 12.89 0.471756 13.0579 0.575603C13.2259 0.67945 13.3616 0.828029 13.4498 1.00468L16.4808 7.10868L23.2568 8.09335C23.4523 8.12045 23.6361 8.20195 23.7875 8.32856C23.9388 8.45516 24.0515 8.62177 24.1127 8.80936C24.1739 8.99695 24.1811 9.19796 24.1336 9.38946C24.086 9.58095 23.9855 9.75521 23.8436 9.89235L18.9413 14.6407L20.0986 21.349C20.2468 22.21 19.3368 22.8657 18.5586 22.4597L12.499 19.291L6.43814 22.4597C5.66114 22.8668 4.75114 22.21 4.89931 21.3478L6.05664 14.6395L1.15431 9.89118C1.01313 9.75395 0.913273 9.57987 0.8661 9.38871C0.818927 9.19756 0.826326 8.99701 0.887456 8.80985C0.948586 8.62269 1.06099 8.45644 1.21191 8.32998C1.36282 8.20353 1.54618 8.12195 1.74114 8.09451L8.51714 7.10868Z" fill="#FF5354"/>
</svg>
